<?xml version="1.0" standalone="no"?><!DOCTYPE svg PUBLIC "-//W3C//DTD SVG 1.1//EN" "http://www.w3.org/Graphics/SVG/1.1/DTD/svg11.dtd"><svg t="1748261989330" class="icon" viewBox="0 0 1024 1024" version="1.1" xmlns="http://www.w3.org/2000/svg" p-id="83023" xmlns:xlink="http://www.w3.org/1999/xlink" width="200" height="200"><path d="M816.15903 883.060364h-115.634424l155.834182-156.889212v116.363636a40.339394 40.339394 0 0 1-40.199758 40.525576z m-406.031515 0H112.686545a40.339394 40.339394 0 0 1-40.199757-40.463516V93.820121a40.339394 40.339394 0 0 1 40.199757-40.47903h703.472485a40.339394 40.339394 0 0 1 40.199758 40.47903v278.434909L425.394424 806.182788zM203.124364 761.638788h120.599272a30.363152 30.363152 0 0 0 0-60.710788h-120.599272a30.363152 30.363152 0 0 0 0 60.710788zM403.099152 112.60897l-231.625697 85.705697 33.543757 12.412121v49.943273a35.467636 35.467636 0 0 0-4.654545 65.070545l-7.059394 28.594424h47.693575l-7.152484-28.827151a35.421091 35.421091 0 0 0-4.949334-64.837818v-41.099637l39.563637 14.646303v96.19394h0.667151l122.445576 50.967272 8.393697-11.248484 8.704 11.248484 122.973091-51.2-0.636121-0.620606v-92.858181l103.718787-38.384485z m232.168727 375.83903a30.254545 30.254545 0 0 0-30.14594-30.363152h-401.997575a30.363152 30.363152 0 0 0 0 60.710788h401.997575a30.254545 30.254545 0 0 0 30.14594-30.347636z m-180.891152 121.421576a30.254545 30.254545 0 0 0-30.145939-30.363152H203.124364a30.363152 30.363152 0 0 0 0 60.710788h221.090909a30.254545 30.254545 0 0 0 30.161454-30.347636zM266.752 198.314667l136.331636-38.493091 136.409212 38.493091-136.347151 38.493091z m240.376242 47.212606v60.912485l-0.077575-0.077576-107.302788 43.209697-107.302788-43.209697-0.108606 0.108606v-63.42594l110.778182 40.991031z" fill="#00CCA3" p-id="83024"></path><path d="M939.597576 584.285091l-36.817455 37.065697 8.393697-8.440243-113.69503-114.486303-14.211879 14.30497 113.69503 114.470788-284.253091 286.208-113.710545-114.470788 326.888727-329.122909a39.998061 39.998061 0 0 1 56.847515 0l56.863031 57.235394a40.680727 40.680727 0 0 1 0 57.235394zM484.801939 813.257697l113.648485 114.470788-14.211879 14.30497-142.118787 28.625454 28.470303-143.111757 21.193697-21.348849z" fill="#00CCA3" opacity=".4" p-id="83025"></path></svg>