<?xml version="1.0" standalone="no"?><!DOCTYPE svg PUBLIC "-//W3C//DTD SVG 1.1//EN" "http://www.w3.org/Graphics/SVG/1.1/DTD/svg11.dtd"><svg t="1748257776235" class="icon" viewBox="0 0 1024 1024" version="1.1" xmlns="http://www.w3.org/2000/svg" p-id="31179" xmlns:xlink="http://www.w3.org/1999/xlink" width="200" height="200"><path d="M203.51 270.85c-12.838-28.048-24.104-52.558-64.644-53.578-27.312-0.694-39.416-23.9-47.084-58.994 0 0-6.18-7.722-43.484 6.352C10.994 178.706 12.5 190.124 12.5 190.124c18.748 30.65 26.06 55.782 6.818 75.172-28.564 28.798-19.742 54.282-9.604 83.412l175.658 509.69L429.29 760.4l-225.78-489.55z" fill="#FFA4AC" p-id="31180"></path><path d="M12.5 190.124c13.138 21.482 20.612 40.234 17.32 56.216 32.514-0.704 56.316-14.076 90.14-34.354-14.562-8.798-22.572-28.04-28.178-53.708 0 0-6.18-7.722-43.484 6.352C10.994 178.706 12.5 190.124 12.5 190.124zM242.996 439.954c31.602 12.714 41.238 34.234 28.84 64.976-18.11 44.874-92.152 76.598-137.558 58.346-31.814-12.796-40.676-37.15-30.124-66.226 16.186-44.604 92.446-74.902 138.842-57.096z" fill="#074784" p-id="31181"></path><path d="M179.596 863.056c-0.834-9.046 4.866-18.982 12.67-22.048l222.768-87.7c7.8-3.074 18.662 0.39 24.13 7.696l13.554 18.084c5.472 7.306 3.562 15.788-4.246 18.854l-251.086 98.68c-7.802 3.074-14.872-1.842-15.704-10.898l-2.086-22.668z" fill="#FC6084" p-id="31182"></path><path d="M33.228 190.882s0.63 0.426 1.6 1.268c0.474 0.426 1.078 0.926 1.688 1.546 0.646 0.592 1.328 1.306 1.994 2.186a40.226 40.226 0 0 1 4.112 6.176c1.338 2.344 2.41 4.936 3.436 7.566 1.904 5.27 3.084 10.696 3.564 14.89 0.216 2.112 0.376 3.87 0.386 5.166 0.036 1.278-0.024 2.046-0.024 2.046s-0.558-0.518-1.39-1.5a37.56 37.56 0 0 1-3.13-4.212c-6.268-9.914-9.81-21.638-11.946-33.104-0.234-1.268-0.29-2.028-0.29-2.028zM54.386 181.354s0.502 0.676 1.232 1.898c0.326 0.638 0.9 1.278 1.398 2.028 6.988 10.526 13.388 20.474 17.214 32.622 0.322 1.14 0.662 2.13 0.99 3.02 0.332 0.87 0.562 1.704 0.77 2.37 0.406 1.362 0.582 2.204 0.582 2.204s-0.7-0.436-1.818-1.324c-0.556-0.444-1.252-0.982-1.986-1.666-0.762-0.658-1.604-1.426-2.35-2.36-4.346-5.45-7.914-11.498-10.762-17.854-2.462-5.494-5.918-12.546-5.506-18.696 0.098-1.418 0.236-2.242 0.236-2.242zM74.074 172.418s0.63 0.436 1.604 1.296A51.11 51.11 0 0 1 79.44 177.4c2.916 3.166 6.234 7.714 9 12.566 2.942 4.676 5.34 9.686 6.73 13.722 0.692 2.028 1.176 3.778 1.458 5.046 0.292 1.268 0.384 2.046 0.384 2.046s-0.646-0.408-1.66-1.222c-1.016-0.796-2.392-2-3.928-3.528-3.07-3.046-6.62-7.51-9.612-12.306-2.762-4.852-4.976-10.028-6.2-14.15a48.32 48.32 0 0 1-1.248-5.12c-0.234-1.268-0.29-2.036-0.29-2.036z" fill="#9F88E3" p-id="31183"></path><path d="M1022.818 531.238c0.158-29.66-7.88-24.66-14.588-15.372a387.446 387.446 0 0 0-1.504-9.742 337.258 337.258 0 0 0-12.594-50.596c-80.01-239.59-321.666-270.72-518.38-270.72-81.52 0-201.89 34.64-262.082 108.072-0.43-16.158-3.148-34.048-14.766-12.214-18.394 34.586-22.354 102.59-22.354 102.59-1.776 26.224 3.212 54.92 15.992 86.682 22.234 55.236 60.194 84.172 110.934 99.35 35.912 10.75 85.08 4.092 112.828 36.992 41.036 48.68-12.254 93.09 5.498 146.148 37.82 112.85 239.03 110.526 321.316 98.052 119.234-18.102 227.398-93.968 259.128-213.894l0.004 0.01c0.002 0 20.3-54.596 20.568-105.358z m-287.3 149.75c-5.038 35.594-49.114 57.272-98.456 48.41-49.32-8.852-85.232-44.892-80.202-80.486 5.038-35.594 49.116-57.272 98.446-48.41 49.332 8.852 85.242 44.882 80.212 80.486z" fill="#F18545" p-id="31184"></path><path d="M1019.096 447.778a336.688 336.688 0 0 0-12.584-50.596C926.498 157.584 684.844 126.462 488.126 126.462c-130.896 0-361.988 89.284-283.206 285.13 22.23 55.226 60.194 84.172 110.936 99.35 35.91 10.742 85.08 4.092 112.826 36.994 41.036 48.678-12.252 93.088 5.496 146.138 37.822 112.86 239.032 110.544 321.32 98.052 157.998-23.976 296.596-149.372 263.598-344.348z m-271.202 174.864c-5.038 35.594-49.112 57.272-98.45 48.41-49.32-8.852-85.234-44.892-80.206-80.496 5.04-35.586 49.12-57.272 98.448-48.41 49.328 8.862 85.242 44.892 80.208 80.496z" fill="#F9D555" p-id="31185"></path><path d="M399.666 261.628c15.474 25.538-10.516 69.588-58.042 98.376-47.524 28.78-98.594 31.428-114.068 5.88-15.468-25.538 10.514-69.578 58.04-98.376 47.53-28.788 98.602-31.418 114.07-5.88z" fill="#7BEFE5" p-id="31186"></path><path d="M640.014 226.996c2.71 31.77-43.024 61.624-102.15 66.67-59.13 5.056-109.266-16.604-111.984-48.374-2.708-31.78 43.024-61.634 102.15-66.69 59.132-5.044 109.264 16.614 111.984 48.394z" fill="#FC6084" p-id="31187"></path><path d="M875.884 295.194c-9.112 30.428-62.4 41.354-119.026 24.4-56.624-16.954-95.148-55.364-86.036-85.792 9.112-30.428 62.4-41.354 119.026-24.408 56.628 16.954 95.142 55.364 86.036 85.8z" fill="#A089E4" p-id="31188"></path><path d="M936.804 542.794c-30.804 9.176-69.616-29.836-86.696-87.154-17.078-57.31-5.964-111.22 24.842-120.396 30.796-9.176 69.608 29.844 86.688 87.154 17.08 57.318 5.964 111.22-24.834 120.396z" fill="#074785" p-id="31189"></path><path d="M782.326 734.982c-25.598-19.178-14.01-69.272 25.876-111.896 39.884-42.622 92.966-61.624 118.564-42.438 25.594 19.178 14.01 69.272-25.882 111.896-39.886 42.622-92.964 61.624-118.558 42.438z" fill="#F18545" p-id="31190"></path><path d="M407.232 513.078c-4.2 2.074-7.838 4.516-11.872 6.868-41.912 24.502-83.138 50.524-121.44 80.37-54.97 42.826-105.222 90.58-148.722 145.184-2.692 3.37-4.826 8.028-5.188 12.26-0.922 10.844 10.462 18.252 21.104 13.528 19.798-8.76 39.54-17.732 58.858-27.51 35.856-18.15 70.442-38.65 102.758-62.504 31-22.872 61.068-47.068 90.798-71.588 16.802-13.862 32.104-29.52 48.05-44.41 1.1-1.028 1.91-2.362 2.856-3.546-12.396-16.204-24.8-32.428-37.202-48.652zM667.812 317.482c-0.75-2.194-1.506-6.074-3.74-7.24-2.704-1.39-6.206 2-7.826 4.056-18.872 23.816-35.658 50.966-60.976 68.328-30.532 20.946-67.28 28.928-100.128 45.068-19.504 9.576-36.678 22.52-42.402 45.578-11.786 47.494 34.018 84.838 77.306 78.394 76.002-11.296 124.176-72.968 135.896-147.694 4.21-26.874 10.9-59.922 1.87-86.49z" fill="#074785" p-id="31191"></path><path d="M280.148 222.588s1.12-0.658 3.216-1.88c2.114-1.194 5.178-3.028 9.152-5.184 41.006-22.262 81.934-42.31 127.372-54.118 45.346-11.782 92.54-16.524 139.316-13.686 2.794 0.17 5.566 0.142 8.37 0.26 6.298 0.268 11.786 0.722 16.298 1.138 4.516 0.362 8.056 0.806 10.472 1.028l3.702 0.426s-1.29 0.166-3.7 0.49c-2.41 0.268-5.944 0.76-10.438 1.204-47.342 4.686-94.736 9.624-141.296 19.85a789.626 789.626 0 0 0-72.596 19.608c-23.48 7.56-46.328 16.778-69.698 24.542-2.184 0.726-4.372 1.442-6.566 2.134-4.292 1.416-7.72 2.398-10.032 3.13-2.33 0.696-3.572 1.058-3.572 1.058zM480.048 716.268l3.014 1.186c1.946 0.814 4.842 1.926 8.44 3.49 49.886 21.698 107.822 30.496 161.856 32.906 29.768 1.328 61.754 1.844 91.182-3.496 3.85-0.592 6.928-0.926 9.016-1.214l3.226-0.38s-1.036 0.436-2.976 1.26c-15.522 6.596-31.954 11.088-48.542 14.064-16.832 3.02-33.904 4.932-51.018 5.146-17.004 0.214-34.02-1.082-50.82-3.696a329.344 329.344 0 0 1-49.44-11.674 314.496 314.496 0 0 1-17.494-6.134c-12.006-4.598-23.48-9.914-34.532-16.374-4.808-2.788-8.894-5.288-12.004-7.686-3.2-2.268-5.644-4.176-7.342-5.426l-2.566-1.972zM321.198 348.112c4.5-3.526 8.996-7.058 13.504-10.572 2.034-1.49 4.148-3.212 6.396-4.982 17.824-14.028 35.552-31.872 41.398-54.41 0.272-0.982 0.488-1.908 0.76-2.768l0.412-2.408c0.514-2.926 0.93-4.686 0.93-4.686s0.528 1.638 1.234 4.658c0.172 0.768 0.364 1.602 0.574 2.528 0.118 0.916 0.158 1.926 0.24 3.01 0.074 1.092 0.154 2.258 0.232 3.49 1.078 16.882-10.622 34.326-22.77 44.996-12.106 10.634-27.274 17.386-42.91 21.144zM306.116 281.73s-1.334 1.158-3.752 2.992c-1.202 0.916-2.646 2.028-4.312 3.296-1.662 1.232-3.49 2.666-5.488 4.222-11.312 8.806-22.612 17.96-31.792 29.048-10.142 12.25-14.486 25.046-18.1 40.216 0 0-0.526-1.638-1.232-4.658l-0.576-2.526c-3.354-14.716 4.74-31.908 13.982-42.848 9.698-11.478 23.83-21.176 38.084-26.056 1.136-0.39 2.22-0.75 3.232-1.084a51.01 51.01 0 0 1 5.272-1.546c2.942-0.75 4.682-1.056 4.682-1.056z" fill="#FFFFFF" p-id="31192"></path><path d="M531.484 201.022s-1.708 0.436-4.692 1c-1.482 0.278-3.274 0.63-5.334 1.028-14.674 2.836-29.528 5.738-43.506 11.164-12.378 4.806-23.798 11.898-32.572 21.968-0.678 0.76-1.29 1.492-1.916 2.14-0.522 0.722-1.004 1.38-1.442 1.972-1.766 2.39-2.926 3.778-2.926 3.778s0.262-1.702 0.976-4.72c3.596-15.178 16.352-27.206 30.092-33.646 14.226-6.666 32.268-9.47 47.878-7.286 1.19 0.166 2.316 0.334 3.372 0.482 2.116 0.268 3.934 0.62 5.408 0.962 2.97 0.658 4.662 1.158 4.662 1.158z" fill="#FFA4AC" p-id="31193"></path><path d="M783.35 230.802s-1.762-0.082-4.776-0.406c-16.864-1.814-33.898-3.94-50.876-2.472-17.446 1.508-31.006 7.584-45.266 17.274 6.07-13.014 18.808-22.184 32.64-26.036 17.042-4.746 36.338-2.586 52.672 3.862 1.22 0.482 2.396 0.916 3.494 1.39 1.092 0.5 2.122 0.982 3.092 1.436 1.944 0.87 3.584 1.74 4.898 2.5a66.616 66.616 0 0 1 4.122 2.452z" fill="#7BEEE4" p-id="31194"></path><path d="M924.618 594.668s-1.736 0.314-4.75 0.658c-1.5 0.184-3.31 0.398-5.394 0.658-15.458 1.924-31.1 3.728-45.964 8.606-16.238 5.33-27.446 14.404-39.096 26.47 0 0 0.378-1.676 1.308-4.64 0.24-0.74 0.502-1.564 0.788-2.462 4.51-14.102 19.794-24.702 33.022-29.494 14.356-5.2 31.874-6.534 46.858-3.344 1.176 0.25 2.292 0.492 3.338 0.722 2.088 0.416 3.88 0.898 5.324 1.342 2.912 0.862 4.566 1.484 4.566 1.484z" fill="#F8D455" p-id="31195"></path><path d="M940.368 425.156s-0.916-1.518-2.31-4.204c-0.7-1.342-1.546-2.954-2.522-4.814-6.838-13.034-13.82-26.232-22.856-37.906-9.21-11.902-20.106-19.884-33.404-26.608-0.838-0.296-1.606-0.564-2.306-0.814-2.796-1-4.464-1.712-4.464-1.712s1.708-0.24 4.808-0.426c0.778-0.036 1.636-0.084 2.584-0.138 0.93 0.036 1.924 0.176 3.012 0.278 26.948 2.526 45.558 26.748 53.078 50.864 0.898 2.88 1.676 5.612 2.208 8.176 0.274 1.288 0.564 2.51 0.782 3.676 0.186 1.194 0.356 2.316 0.51 3.38 0.356 2.102 0.542 3.944 0.638 5.454 0.234 3.026 0.242 4.794 0.242 4.794z" fill="#9F88E3" p-id="31196"></path><path d="M756.422 295.092s1.878 0.232 5.154 0.63c1.606 0.166 3.552 0.38 5.78 0.63 14.912 1.672 29.918 3.146 44.944 2.656 13.88-0.452 30.916-1.474 41.954-10.656 1.384-1.334 2.666-2.574 3.512-3.75 0.954-1.13 1.548-2.13 2.002-2.806 0.468-0.686 0.718-1.046 0.718-1.046l0.048 1.222c-0.032 0.796 0.142 2.046-0.216 3.538-0.202 1.538-0.698 3.388-1.648 5.444-0.996 2.01-2.352 4.306-4.41 6.398-1.974 2.194-4.6 4.102-7.536 5.908a52.3 52.3 0 0 1-9.882 4.306c-3.558 1.092-7.32 2.028-11.146 2.528-3.834 0.602-7.746 0.834-11.626 0.936-15.58 0.278-30.646-3.066-41.192-7.148-5.29-2.038-9.464-4.186-12.262-5.898-1.424-0.824-2.434-1.584-3.134-2.092-0.684-0.522-1.06-0.8-1.06-0.8z" fill="#7BEEE4" p-id="31197"></path><path d="M538.38 269.768s1.542-0.416 4.236-1.166c1.31-0.37 2.898-0.834 4.722-1.362 14.142-4.09 28.272-9.008 41.496-15.504 6.066-2.978 12.028-6.396 16.798-11.184 4.77-4.788 8.284-11.114 8.554-17.868 2.714 5.204 2.76 11.058 1.144 16.59-0.75 2.566-2.108 5.102-3.742 7.658-11.434 17.902-37.172 25.17-57.242 25.056-4.854-0.028-8.876-0.518-11.664-1.092-1.408-0.24-2.47-0.566-3.192-0.778-0.72-0.23-1.11-0.35-1.11-0.35z" fill="#FFA4AC" p-id="31198"></path><path d="M873.902 445.714s1.28 1.186 3.194 3.528c1.936 2.324 4.464 5.768 7.278 9.944 9.088 13.48 16.11 28.346 26.292 41.084 4.858 6.076 10.868 11.634 18.904 12.642 0.888 0.056 1.732 0.074 2.56 0.176 0.82-0.028 1.578-0.056 2.264-0.064 1.408-0.036 2.532-0.26 3.334-0.324l1.246-0.13-0.888 0.982c-0.626 0.556-1.43 1.666-2.756 2.556-0.662 0.49-1.398 1.018-2.2 1.62-0.842 0.51-1.81 0.926-2.862 1.464-1.052 0.482-2.236 0.796-3.504 1.222-1.274 0.324-2.662 0.51-4.116 0.648-2.89 0.11-6.116-0.204-9.228-1.288-3.102-1.074-6.234-2.638-9.008-4.722-5.698-4.092-10.346-9.75-14.212-15.704-7.628-12.056-11.844-25.548-13.946-35.892a137.622 137.622 0 0 1-1.942-12.742c-0.328-3.112-0.41-5-0.41-5z" fill="#9F88E3" p-id="31199"></path><path d="M796.876 716.852s2.396-0.24 6.554-0.444c1.046-0.056 2.2-0.11 3.448-0.166 18.29-0.812 36.428-7.596 51.812-17.314 15.126-9.556 28.062-22.046 40.32-34.95 4.574-4.816 8.39-8.824 11.06-11.64a115.42 115.42 0 0 1 4.356-4.398s-0.75 2.038-2.282 5.528c-0.76 1.74-1.722 3.852-2.996 6.196-1.2 2.38-2.594 5.056-4.376 7.844l-2.694 4.416c-1.032 1.472-2.09 3-3.178 4.574-2.14 3.166-4.846 6.27-7.516 9.556-10.096 12.424-24.468 22.636-39.29 28.532-15.428 6.138-32.714 7.838-48.918 3.962-4.02-1.002-6.3-1.696-6.3-1.696z" fill="#F8D455" p-id="31200"></path><path d="M180.012 707.332s2.172-3.102 6.142-8.362c2-2.63 4.386-5.834 7.246-9.418l4.512-5.75c1.658-1.964 3.58-3.898 5.492-5.992a651.364 651.364 0 0 1 12.638-13.38c2.236-2.416 4.668-4.694 7.176-7 2.476-2.344 5.104-4.64 7.732-7.01 5.304-4.704 10.624-9.796 16.512-14.316a1470.372 1470.372 0 0 1 17.654-14c6.092-4.436 12.17-8.89 18.226-13.158 5.986-4.398 12.14-8.278 17.98-12.232a629.56 629.56 0 0 1 17.056-11.038c5.434-3.482 10.648-6.64 15.478-9.556 9.642-5.842 17.744-10.574 23.504-13.806 5.74-3.24 9.108-4.982 9.108-4.982s-2.752 2.592-7.722 6.926c-4.98 4.324-12.112 10.52-20.936 17.51-4.394 3.528-9.158 7.342-14.298 11.25-5.122 3.926-10.422 8.158-16.072 12.316l-17.256 13.02c-5.844 4.454-11.85 8.88-17.848 13.316-5.91 4.538-11.822 9.066-17.636 13.528-5.914 4.352-11.498 8.88-16.934 13.25-2.732 2.166-5.376 4.362-8.06 6.39-2.68 2.028-5.276 4.046-7.63 6.166-4.79 4.176-9.44 8.02-13.75 11.576-2.154 1.796-4.218 3.51-6.184 5.148-1.894 1.732-3.698 3.37-5.39 4.926-3.362 3.12-6.386 5.74-8.85 7.926-4.956 4.362-7.89 6.752-7.89 6.752z" fill="#9F88E3" p-id="31201"></path><path d="M587.49 558.916s2.392-1.666 6.658-4.324c1.07-0.668 2.252-1.398 3.54-2.204 1.3-0.778 2.804-1.416 4.378-2.204 23.58-11.786 50.636-15.322 76.214-8.26 24.506 6.764 44.644 22.444 59.17 43.022 1.058 1.518 2.078 2.908 2.946 4.252 2.128 3.786 3.89 7.706 5.706 11.652-16.944-20.914-40.2-36.644-65.916-44.588-28.154-8.698-57.102-6.926-85.188 0.746-4.746 1.306-7.508 1.908-7.508 1.908z" fill="#074785" p-id="31202"></path><path d="M167.162 608.854a15.404 15.404 0 1 1-15.404-15.4 15.398 15.398 0 0 1 15.404 15.4zM223.392 764.392a8.74 8.74 0 0 1-8.748 8.742c-4.832 0-8.746-3.908-8.746-8.742s3.914-8.742 8.746-8.742a8.74 8.74 0 0 1 8.748 8.742zM240.884 593.454a8.746 8.746 0 1 1-17.492 0 8.74 8.74 0 0 1 8.746-8.742 8.74 8.74 0 0 1 8.746 8.742z" fill="#FFFFFF" p-id="31203"></path><path d="M321.148 273.656m-6.51 0a6.51 6.51 0 1 0 13.02 0 6.51 6.51 0 1 0-13.02 0Z" fill="#FFFFFF" p-id="31204"></path><path d="M555.06 201.42a6.51 6.51 0 1 1-6.508-6.518 6.51 6.51 0 0 1 6.508 6.518z" fill="#FFA4AC" p-id="31205"></path><path d="M805.066 233.914a6.512 6.512 0 1 1-6.512-6.518 6.51 6.51 0 0 1 6.512 6.518z" fill="#7BEEE4" p-id="31206"></path><path d="M949.162 441.62a6.51 6.51 0 1 1-13.02 0 6.51 6.51 0 0 1 13.02 0z" fill="#9F88E3" p-id="31207"></path><path d="M828.012 645.244a6.502 6.502 0 0 1-6.512 6.5 6.504 6.504 0 0 1-6.508-6.5 6.512 6.512 0 1 1 13.02 0z" fill="#F8D455" p-id="31208"></path><path d="M91.568 462.206a8.746 8.746 0 1 1-17.492 0.008 8.746 8.746 0 0 1 17.492-0.008z" fill="#074785" p-id="31209"></path><path d="M150.196 421.832a7.642 7.642 0 0 1-7.648 7.648 7.648 7.648 0 1 1 7.648-7.648zM126.184 268.276a7.65 7.65 0 0 1-7.648 7.658 7.652 7.652 0 0 1-7.646-7.658 7.644 7.644 0 0 1 7.646-7.64 7.64 7.64 0 0 1 7.648 7.64z" fill="#FC6084" p-id="31210"></path><path d="M179.382 281.73a12.23 12.23 0 0 1-12.226 12.232 12.23 12.23 0 0 1-12.22-12.232 12.22 12.22 0 0 1 12.22-12.222 12.22 12.22 0 0 1 12.226 12.222zM286.284 764.392a12.22 12.22 0 0 1-12.222 12.222 12.22 12.22 0 0 1-12.222-12.222 12.214 12.214 0 0 1 12.222-12.222 12.214 12.214 0 0 1 12.222 12.222z" fill="#074785" p-id="31211"></path><path d="M91.276 291.018c14.13 31.252 30.686 40.058 51.274 34.234-19.094 10.482-24.016 29.604-12.006 61.588-14.196-30.224-30.05-42.29-51.312-34.984 18.454-10.992 23.884-29.224 12.044-60.838z" fill="#FFFFFF" p-id="31212"></path><path d="M354.626 658.598c-3.22 34.762 8.206 51.096 31.588 56.67-24.456-0.714-39.744 13.51-45.442 47.808 2.598-33.9-6.356-52.726-31.212-57.346 24.108-0.064 39.396-13.242 45.066-47.132z" fill="#074785" p-id="31213"></path><path d="M41.83 262.74l0.274 2.204c0.04 0.732 0.024 1.492 0.028 2.268-0.05 1.528-0.286 3.028-0.606 4.528-0.624 3-1.74 5.862-2.932 8.602-2.882 6.738-5.97 12.802-7.262 20.138-1.296 7.36-1.336 14.916-0.532 22.334 1.492 13.79 5.544 27.772 9.462 40.978a530.316 530.316 0 0 1 3.394 11.964 502.074 502.074 0 0 1 3.572 11.946c1.25 3.954 2.526 7.918 3.714 11.936l3.862 11.954c0.62 2.018 1.35 3.992 2.028 5.992 0.668 2.01 1.328 4.028 1.938 6.084a161.322 161.322 0 0 1-3.822-5.12c-1.208-1.74-2.51-3.462-3.658-5.26-2.164-3.648-4.5-7.25-6.536-11-9.494-18.054-16.894-36.99-21.756-56.82-4.34-17.704-5.688-35.302 1.224-52.512 2.772-5.964 6.598-10.556 10.032-15.102 1.696-2.296 3.29-4.602 4.654-7.066 0.68-1.232 1.218-2.528 1.752-3.852 0.218-0.658 0.47-1.334 0.668-2.038l0.502-2.158z" fill="#FC6084" p-id="31214"></path><path d="M130.134 486.17l-0.916 1.51c-0.566 0.982-1.618 2.37-2.554 4.232-3.634 7.23-6.482 14.264-6.782 22.48-0.138 3.776 0.226 7.658 1.844 11.074 3.548 7.492 12.054 11.016 19.828 13.894 19.088 7.068 41.632 6.686 61.548 4.898 2.898-0.278 5.482-0.398 7.546-0.778 4.178-0.584 6.674-0.796 6.674-0.796s-2.114 1.204-5.998 3.112c-24.046 11.81-56.362 13.412-80.758 1.898-7.14-3.37-14.026-8.216-17.432-15.34-5.412-11.32-1.402-26.766 6.304-36.126 0.99-1.204 1.858-2.342 2.756-3.314l2.644-2.546c0.394-0.38 0.766-0.732 1.118-1.064 0.378-0.288 0.734-0.566 1.064-0.816l1.69-1.268 1.424-1.05z" fill="#9F88E3" p-id="31215"></path><path d="M500.902 503.292c-9.734-5.954-14.774-15.602-19.844-25.224-0.608-1.158-1.094-2.37-1.644-3.564-21.182 11.028-41.808 22.356-62.958 33.458-3.012 1.574-6.346 3.284-9.226 5.128 12.404 16.214 24.808 32.436 37.204 48.642 7.73-7.612 15.636-15.066 23.15-22.882 11.248-11.724 22.224-23.706 33.318-35.558z" fill="#9F88E3" p-id="31216"></path><path d="M661.022 292.38c-0.754-2.268-1.52-6.288-3.76-7.482-2.712-1.444-6.206 2.046-7.82 4.158-18.806 24.52-35.514 52.466-60.79 70.31-30.48 21.52-67.212 29.65-100.02 46.188-19.48 9.824-36.622 23.122-42.28 46.902-11.648 48.948 34.276 87.608 77.556 81.098 75.99-11.436 123.996-74.904 135.494-151.972 4.14-27.708 10.734-61.774 1.62-89.202z" fill="#FFA4AC" p-id="31217"></path><path d="M661.022 292.38c-0.586-1.768-1.194-4.584-2.496-6.316 2.31 24.14-2.542 50.558-5.894 73.014-12.108 81.052-62.596 147.834-142.542 159.852-18.228 2.74-36.894-2.148-51.952-12.278 15.194 19.454 40.91 30.632 65.768 26.9 75.99-11.436 123.996-74.904 135.494-151.972 4.142-27.706 10.736-61.772 1.622-89.2z" fill="#FC6084" p-id="31218"></path><path d="M464.786 468.882s-0.016-0.648-0.054-1.88c-0.004-0.612-0.016-1.37-0.024-2.26-0.032-0.888 0.264-1.916 0.462-3.112 1.798-10.79 10.566-19.958 19.048-26.234 3.704-2.74 7.722-5.528 12.044-7.982a175.232 175.232 0 0 1 13.464-7.084c4.656-2.268 9.232-4.296 13.912-6.51 4.7-2.12 9.384-4.26 14.052-6.25 4.596-2.084 9.036-4.158 13.422-6.084a19862.74 19862.74 0 0 0 12.66-5.556 534.616 534.616 0 0 1 11.468-4.908c7.172-2.936 13.144-5.426 17.434-6.982 4.266-1.612 6.778-2.398 6.778-2.398s-1.988 1.704-5.6 4.492c-1.81 1.39-3.996 3.102-6.574 4.936-2.562 1.87-5.436 4.01-8.704 6.13-15.188 9.854-30.828 18.82-47.244 26.508a378.06 378.06 0 0 1-10.794 4.85c-9.53 4.104-19.252 7.826-28.392 12.738-9.214 4.952-19.684 11.624-24.686 21.048-0.46 0.964-1.036 1.778-1.32 2.62-0.284 0.852-0.528 1.564-0.724 2.138-0.408 1.168-0.628 1.78-0.628 1.78z" fill="#FFFFFF" p-id="31219"></path></svg>