<?xml version="1.0" standalone="no"?><!DOCTYPE svg PUBLIC "-//W3C//DTD SVG 1.1//EN" "http://www.w3.org/Graphics/SVG/1.1/DTD/svg11.dtd"><svg t="1748248911518" class="icon" viewBox="0 0 1024 1024" version="1.1" xmlns="http://www.w3.org/2000/svg" p-id="6168" xmlns:xlink="http://www.w3.org/1999/xlink" width="200" height="200"><path d="M840.114334 246.429608l-185.196245 185.196245v522.354949c0 18.472696-6.825939 34.940273-20.520478 49.360068a62.713311 62.713311 0 0 1-49.914676 20.477816 79.906143 79.906143 0 0 1-50.981229-19.923208c-14.419795-12.585324-21.288396-29.223549-20.520477-49.914676v-243.984642h-41.040956v243.984642c0 18.472696-6.825939 34.940273-20.477816 49.360068a62.713311 62.713311 0 0 1-49.914675 20.477816 75.511945 75.511945 0 0 1-49.914676-19.923208c-13.694539-12.585324-20.904437-29.223549-21.629693-49.914676V431.625853l-185.196246-185.153583a60.153584 60.153584 0 0 1-16.638225-42.704779c0-16.638225 6.100683-31.05802 18.259386-43.259385 12.201365-12.201365 26.62116-18.34471 43.259385-18.34471s30.503413 5.972696 41.595563 17.790102l145.264506 144.15529h232.935153l144.15529-144.197952a58.87372 58.87372 0 0 1 43.259386-17.704778c16.979522 0 31.399317 6.100683 43.216723 18.302048 11.860068 12.201365 17.74744 26.62116 17.747441 43.259385s-5.887372 30.84471-17.747441 42.662117z m-205.162116-104.22355c0 39.163823-13.651877 72.824232-41.040955 100.895904-27.346416 28.114334-61.177474 41.808874-101.450512 41.040956-40.3157-0.725256-73.59215-14.419795-99.829352-41.040956-26.237201-26.62116-40.102389-60.409556-41.595563-101.450511-1.493174-41.040956 12.372014-74.317406 41.595563-99.829352 29.180887-25.511945 62.457338-39.377133 99.829352-41.595563 37.329352-2.21843 71.16041 11.860068 101.450512 42.15017 30.290102 30.290102 43.984642 63.566553 41.040955 99.829352z" fill="#666666" p-id="6169"></path></svg>