<?xml version="1.0" standalone="no"?><!DOCTYPE svg PUBLIC "-//W3C//DTD SVG 1.1//EN" "http://www.w3.org/Graphics/SVG/1.1/DTD/svg11.dtd"><svg t="1748261873446" class="icon" viewBox="0 0 1024 1024" version="1.1" xmlns="http://www.w3.org/2000/svg" p-id="78365" xmlns:xlink="http://www.w3.org/1999/xlink" width="200" height="200"><path d="M576.206062 635.608749a35.385811 35.385811 0 0 1-26.176974-24.357944 31.60564 31.60564 0 0 1 10.715222-32.572 156.32286 156.32286 0 0 0 49.938048-114.854668 106.697458 106.697458 0 1 0-213.167536 0 156.948151 156.948151 0 0 0 49.59698 114.712557h-0.198956a31.60564 31.60564 0 0 1 11.027867 32.770956 35.385811 35.385811 0 0 1-26.489619 24.44321c-99.137116 17.366049-148.847785 66.963029-148.847785 103.968914 0 45.759964 86.91551 55.224603 221.495281 55.224603s221.523704-9.464639 221.523704-55.224603c0-37.147996-49.994893-86.744976-149.38781-103.968914z m326.686355 374.180082H121.079161A74.125458 74.125458 0 0 1 43.713556 939.727767V190.088598a74.125458 74.125458 0 0 1 77.365605-70.061064H204.868214L188.752748 205.777728H138.303098v718.289331h747.507494V205.749306h-52.069724l-14.495392-85.750194h83.732208a74.097036 74.097036 0 0 1 77.365605 70.061063v749.667592a74.097036 74.097036 0 0 1-77.365605 70.061064zM452.284667 14.211169a42.917731 42.917731 0 0 0-40.047074 28.251804l-13.415344 29.388698a42.974575 42.974575 0 0 1-40.075496 28.251804h-42.633508a42.946153 42.946153 0 0 0-40.103919 28.422338l-16.598645 90.127235a20.066171 20.066171 0 0 0 3.950705 19.895636 25.096925 25.096925 0 0 0 20.464083 8.270901h451.630954a25.125347 25.125347 0 0 0 20.464083-8.270901 20.094593 20.094593 0 0 0 3.979128-19.895636l-16.655491-90.155657a42.946153 42.946153 0 0 0-40.103919-28.422338h-42.633507a43.03142 43.03142 0 0 1-40.103919-28.251804l-13.386921-29.388698A43.002998 43.002998 0 0 0 567.025647 14.211169h-114.712557z" fill="#289BBA" p-id="78366"></path></svg>