<?xml version="1.0" standalone="no"?><!DOCTYPE svg PUBLIC "-//W3C//DTD SVG 1.1//EN" "http://www.w3.org/Graphics/SVG/1.1/DTD/svg11.dtd"><svg t="1748248726622" class="icon" viewBox="0 0 1024 1024" version="1.1" xmlns="http://www.w3.org/2000/svg" p-id="5430" xmlns:xlink="http://www.w3.org/1999/xlink" width="200" height="200"><path d="M133.150308 204.783617v737.221023l40.956723 40.956723 40.956724 20.478362h593.87249l61.435085-40.956724 20.478362-20.478361V184.305256l-40.956723-40.956724-61.435086-28.669706H235.542117L194.585393 143.348532l-61.435085 61.435085z" fill="#FFFFFF" p-id="5431"></path><path d="M539.113351 50.581553a35.017999 35.017999 0 0 0-50.069595 0c-6.348292 6.450684-10.321094 15.50212-10.321094 25.475082s3.972802 19.00392 10.321094 25.495561c5.959203 6.061595 14.171026 9.972962 23.181506 10.505399h3.563235c9.010479-0.532437 17.222302-4.443804 23.181505-10.505399 6.348292-6.491641 10.341573-15.522598 10.341573-25.495561a35.099912 35.099912 0 0 0-10.198224-25.49556zM514.047836 0c22.792417 0 43.455084 1.351572 58.281418 16.587473a84.309415 84.309415 0 0 1 24.103031 59.469162h94.282378v120.0032H337.135269v-120.0032h94.302856c0-23.201984 9.276698-44.233261 24.225902-59.325813C470.777058 1.474442 491.316855 0 514.068315 0zM203.657307 112.057595h102.371331v48.00128h-102.391809c-8.600912 0-16.403168 3.645148-22.116631 9.440525a32.191985 32.191985 0 0 0-9.256219 22.669546v752.047357c0 17.529478 14.171026 31.946244 31.393328 31.946244h621.108712c17.201824 0 31.393329-14.416767 31.393328-31.946244V192.046076c0-8.785217-3.583713-16.730822-9.276698-22.669546a30.963283 30.963283 0 0 0-22.11663-9.440525h-102.391809V111.934725h102.391809a77.817775 77.817775 0 0 1 55.49636 23.447724 80.684745 80.684745 0 0 1 23.038157 56.520279v752.047356c0 43.967043-35.366131 79.968003-78.534517 79.968003H203.657307C160.345572 1023.918087 125.12279 987.917127 125.12279 943.950084V192.025598a80.684745 80.684745 0 0 1 23.038157-56.520278 77.039597 77.039597 0 0 1 55.49636-23.447725z" fill="#2D4B66" p-id="5432"></path><path d="M282.642349 820.424606h471.002319v31.782417h-471.002319v-31.782417zM282.642349 737.221022h471.002319v31.659548h-471.002319V737.221022z" fill="#2D4B66" p-id="5433"></path><path d="M290.833693 307.175426m81.913447 0l278.50572 0q81.913447 0 81.913447 81.913447l0 163.826894q0 81.913447-81.913447 81.913447l-278.50572 0q-81.913447 0-81.913447-81.913447l0-163.826894q0-81.913447 81.913447-81.913447Z" fill="#7ACAAF" p-id="5434"></path><path d="M621.026798 471.166147c-17.570434-44.089913-62.520438-73.455884-111.607072-73.455884-49.086633 0-94.036637 29.365971-111.607071 73.455884l-1.556356 2.62123 1.023919 2.62123c17.570434 44.069434 62.540917 73.455884 111.607071 73.455884 49.107111 0 94.057115-29.386449 111.62755-73.455884l1.023918-2.62123-0.511959-2.62123z m-112.119031 47.735061c-24.287337 0-44.438045-19.925446-44.438045-45.113831s19.618271-45.134309 44.438045-45.134309c24.778818 0 44.438045 19.945924 44.438045 45.134309 0 25.188385-20.150708 45.113831-44.438045 45.113831z" fill="#FFFFFF" p-id="5435"></path><path d="M482.552116 473.787377c0 9.563395 5.017199 18.389569 13.167586 23.161027a26.007519 26.007519 0 0 0 26.355652 0 26.826654 26.826654 0 0 0 13.188065-23.161027c0-14.785377-11.816015-26.765219-26.355652-26.765219-14.560115 0-26.355652 11.979842-26.355651 26.765219z" fill="#FFFFFF" p-id="5436"></path></svg>