<svg xmlns="http://www.w3.org/2000/svg" xmlns:xlink="http://www.w3.org/1999/xlink" width="95.98056030273438" height="95.26416015625" viewBox="0 0 95.98056030273438 95.26416015625" fill="none">
<path d="M32.1642 59.6204C36.0249 63.3351 38.7175 68.0964 39.9106 73.322C41.0396 78.4159 41.3281 83.6623 40.7618 88.8533C40.7654 89.4944 40.5944 90.125 40.2632 90.6725C39.8216 91.1993 39.2446 91.5943 38.5964 91.8195C35.8041 92.97 32.848 93.6631 29.8349 93.8744C29.8349 93.8744 29.8242 93.8814 29.8207 93.8814C28.5706 93.8952 27.3454 93.8952 26.1344 93.8848C19.3568 93.8259 12.3155 93.0324 5.55211 92.7863C5.06062 92.776 6.16827 84.2965 6.31429 83.5306C6.96606 80.2733 7.98823 77.0991 9.37012 74.074C10.72 71.0938 12.3975 68.2697 14.3634 65.6534C15.3571 64.2638 16.4612 62.9574 17.665 61.7446C19.2214 60.2372 19.7094 61.3149 21.5792 61.8832C22.9611 62.2193 24.4071 62.1639 25.7605 61.7273C27.8226 61.0896 29.8207 60.258 31.7226 59.2392L32.1642 59.6204Z"   fill="#00D4FC" >
</path>
<path d="M93.4298 26.9702C89.8553 32.9134 86.0573 41.9019 83.5613 47.3696C77.1671 47.1642 65.18 47.8206 58.7897 47.6152L54.9108 47.4969C59.8759 39.897 64.7024 32.5071 70.3724 25.3292C76.8204 25.8918 86.1921 26.4209 93.4298 26.9702Z"   fill="#FFE3F8" >
</path>
<path d="M72.5938 94.1002L68.2458 93.8994C66.357 83.5015 67.62 72.8189 68.1286 62.2622C68.3642 57.3878 68.4359 52.5134 68.3438 47.6343C69.7541 47.5456 71.1439 47.4475 72.5349 47.4102L72.5938 47.4102C72.604 54.2269 72.574 86.9052 72.5938 94.1002Z"   fill="#7E60F8" >
</path>
<path d="M71.0315 70.9918L71.5915 69.7518L71.5915 65.1318C71.5915 65.1318 71.076 64.8314 70.9715 64.5518L71.0515 63.7118C71.3059 63.2483 71.4643 62.7343 71.5915 61.9618L71.5915 58.0818C71.1828 58.2878 70.6867 58.1876 70.3915 57.8418C70.0918 57.496 70.0781 56.9797 70.3415 56.6118L71.2715 55.2818C71.3533 55.1641 71.5915 54.9918 71.5915 54.9918L71.4915 50.8818C71.4915 50.8818 70.8767 51.2374 70.5315 51.1418C70.1863 51.0535 69.9169 50.7776 69.8215 50.4318C69.8215 50.4318 69.8317 49.7219 70.0815 49.4718C70.3359 49.2143 70.4961 48.8723 70.5415 48.5118C69.0336 48.5486 67.5186 48.5924 66.0515 48.6218C66.1151 53.2127 66.0395 57.8192 65.8215 62.3218C65.7249 64.3328 65.5999 66.357 65.4743 68.3882C64.9505 76.864 64.4193 85.4603 65.9215 93.7218C66.0214 94.2662 65.6566 94.7962 65.1115 94.8918C64.5665 94.9874 64.0514 94.6262 63.9515 94.0818C62.4024 85.564 62.9442 76.8172 63.4762 68.2281C63.6008 66.2157 63.725 64.2119 63.8215 62.2218C64.035 57.7633 64.1051 53.2033 64.0415 48.6418C62.3746 48.6639 60.4139 48.6733 58.7515 48.6218L51.5215 48.3918C51.1627 48.3918 50.835 48.1755 50.6715 47.8518C50.5035 47.5281 50.5217 47.1434 50.7215 46.8418C56.5352 37.9469 61.7018 29.8999 67.9015 22.0718C68.1105 21.8143 68.4354 21.6697 68.7715 21.6918C76.2066 22.3392 87.6173 22.9417 95.0615 23.5818C95.4203 23.6112 95.7316 23.8307 95.8815 24.1618C96.0359 24.4855 96.0005 24.8675 95.7915 25.1618C92.6122 29.635 88.8134 38.11 86.5515 43.1718C86.5515 43.4661 86.4286 43.7532 86.2015 43.9518L86.0415 44.3118C85.4783 45.5699 84.9484 46.7471 84.4715 47.7918C84.2989 48.1597 83.5315 48.3818 83.5315 48.3818C80.9245 48.2935 77.3123 48.3635 73.6015 48.4518C73.6015 54.1684 73.5915 75.4763 73.5915 85.3718C73.5915 85.3718 73.9116 85.3882 74.0615 85.4618C74.5611 85.6972 74.5415 86.7918 74.5415 86.7918C74.2645 87.3583 73.9458 87.9094 73.5915 88.4318C73.5915 92.2576 73.6015 92.8566 73.6015 94.2618C73.6015 94.2618 73.1511 95.2618 72.6015 95.2618C72.0474 95.2618 71.6015 94.2618 71.6015 94.2618C71.6015 93.1214 71.5969 92.9006 71.5515 90.3918C71.1518 90.3918 70.7859 90.1497 70.6315 89.7818C70.4726 89.4139 70.549 88.9887 70.8215 88.7018L71.5915 87.7918C71.5915 85.386 71.5904 82.5533 71.2815 80.0518C71.0998 80.3608 70.4115 80.5518 70.4115 80.5518C70.0527 80.5518 69.7287 80.3482 69.5515 80.0318C69.3789 79.7228 69.3798 79.3408 69.5615 79.0318L70.9115 76.7718L71.5915 76.3118C71.5915 75.0022 71.5906 73.6755 71.5315 72.3218L71.0015 71.7618L71.0315 70.9918ZM79.3768 46.3032C79.4007 46.3147 79.4368 46.3432 79.4368 46.3432C77.3617 46.357 75.073 46.3982 72.7668 46.4532L72.5768 46.4132C70.1113 46.349 67.6443 46.4146 65.1868 46.6232C62.797 46.6645 60.5693 46.6805 58.8168 46.6232L53.3768 46.4532C58.5388 38.5528 63.3973 31.0329 69.1368 23.7332C75.8641 24.2995 86.1728 24.8738 93.2068 25.4332C93.0754 25.6441 92.9202 25.8871 92.7768 26.1232C92.5219 26.0017 92.2357 25.9954 91.9768 26.1032L89.7068 27.0732C89.201 27.2887 88.9617 27.8765 89.1768 28.3832C89.3959 28.8922 89.987 29.1287 90.4968 28.9132L91.3868 28.5232C90.9049 29.3967 90.4248 30.3178 89.9468 31.2532C89.9468 31.2532 89.8226 31.2957 89.7668 31.3232L87.3068 32.8432C86.8886 33.1435 86.7619 33.7084 87.0168 34.1532C87.2717 34.6003 87.8268 34.7818 88.2968 34.5732C87.8866 35.4238 87.4851 36.2781 87.0868 37.1332C87.0191 37.1332 86.8868 37.1732 86.8868 37.1732L84.2368 38.3132C84.2368 38.3132 83.6646 38.7633 83.6168 39.1232C83.573 39.4854 83.7261 39.8377 84.0168 40.0532C84.3116 40.2664 85.0368 40.1532 85.0368 40.1532L85.8768 39.7932C85.4825 40.6598 85.0972 41.5033 84.7268 42.3332C84.1573 42.4685 83.5723 42.5532 82.9868 42.5532C82.3615 42.5532 81.9068 42.9907 81.9068 43.5432C81.9068 44.0957 82.3532 44.5532 82.9068 44.5532C83.2454 44.5532 83.7668 44.4932 83.7668 44.4932C83.5876 44.8921 83.4081 45.2772 83.2368 45.6532L83.0968 45.5932C82.1409 45.4144 81.2333 45.0761 80.3968 44.5832C80.0862 44.3906 79.6955 44.379 79.3768 44.5532C79.0582 44.7297 78.8668 45.0687 78.8668 45.4332C78.8668 45.7954 79.0622 46.1267 79.3768 46.3032Z" fill-rule="evenodd"  fill="#000000" >
</path>
<path d="M33.3803 62.3565C32.7956 61.653 32.165 60.9756 31.5003 60.3465C31.5003 60.3465 31.395 60.2522 31.3403 60.2065L30.7103 63.7965C30.6178 64.3398 30.0972 64.698 29.5503 64.6065C29.0077 64.5092 28.6436 63.9998 28.7403 63.4565L29.3603 59.8765C29.1752 60.0137 28.8203 60.2665 28.8203 60.2665C26.2333 62.1424 23.1474 63.195 19.9503 63.2865C18.0826 63.2865 16.2425 62.8016 14.6103 61.8865C6.31905 70.0823 1.76214 81.3305 2.01034 92.9865C2.02716 93.5413 1.59141 93.9993 1.04034 94.0165C0.489266 94.0336 0.0313689 93.6055 0.0103357 93.0565C-0.250476 80.9715 4.42348 69.294 12.9503 60.7265C12.3782 60.2289 11.871 59.6556 11.4503 59.0265C9.5279 56.1268 9.63214 52.4159 9.88034 49.8765C10.4104 44.4431 12.8515 39.9982 16.4103 37.9965C18.4211 36.8641 21.7645 35.9845 26.3203 38.1865C30.1652 40.091 32.7929 43.8013 33.3103 48.0565C33.4407 49.6007 33.3965 51.1494 33.1903 52.6765C33.102 54.1578 32.7297 55.5982 32.0903 56.9365C31.9095 57.2625 31.7017 57.5748 31.4703 57.8665C31.7942 58.0381 32.0927 58.2363 32.3703 58.4765C32.3703 58.4765 32.7147 58.7621 32.8703 58.9165C36.8708 62.7599 39.6636 67.6774 40.9003 73.0765C42.0698 78.2753 42.3593 83.6404 41.7703 88.9365C41.7703 89.7601 41.532 90.5587 41.0903 91.2565C40.5477 91.9314 39.8264 92.4391 39.0103 92.7365C38.7663 92.8394 38.2403 92.7465 38.2403 92.7465C37.9963 92.6492 37.7003 92.2165 37.7003 92.2165C37.6372 92.0563 37.6303 91.7165 37.6303 91.7165C37.2013 91.6993 36.8281 91.4083 36.7103 90.9965C36.5883 90.5847 36.747 90.1324 37.1003 89.8865L39.5703 88.1965C39.5703 88.1965 39.7378 88.1094 39.8303 88.0865C39.9018 87.1542 39.9509 86.2572 39.9803 85.3765L38.8703 87.0865C38.8703 87.0865 38.3421 87.5636 37.9803 87.5465C37.6228 87.5293 37.3002 87.3268 37.1403 87.0065C36.9763 86.6862 37.0026 86.2939 37.2003 85.9965L39.8703 81.8465C39.8703 81.8465 39.9541 81.7565 40.0003 81.7165C39.9709 80.6698 39.9171 79.6402 39.8203 78.6565L39.6403 78.9365C39.6403 78.9365 39.1179 79.4079 38.7603 79.3965C38.4028 79.3793 38.0744 79.181 37.9103 78.8665L37.9503 77.8665L39.2803 75.7765L39.4003 75.6565C39.2699 74.9473 39.1186 74.2528 38.9503 73.5665C38.8494 73.149 38.7281 72.7383 38.6103 72.3265L37.7803 75.0665C37.7803 75.0665 37.3895 75.6764 37.0403 75.7565C36.6954 75.8365 36.0903 75.4565 36.0903 75.4565C35.8464 75.1934 35.8603 74.4865 35.8603 74.4865L37.1203 70.3565C37.2129 70.0591 37.4417 69.8237 37.7403 69.7265C37.3744 68.7999 36.9631 67.8973 36.5003 67.0165L35.7203 68.7665C35.7203 68.7665 35.2679 69.3164 34.9103 69.3565C34.557 69.3908 34.2107 69.2324 34.0003 68.9465C33.79 68.6548 33.7473 68.2725 33.8903 67.9465L34.8303 65.8565C34.9607 65.5705 35.5303 65.3065 35.5303 65.3065C35.3032 64.9404 35.0701 64.5854 34.8303 64.2365C34.5401 64.9571 34.1736 65.6316 33.7403 66.2665C33.4248 66.724 32.8047 66.841 32.3503 66.5265C31.896 66.2119 31.7748 65.5883 32.0903 65.1365C32.654 64.3129 33.0817 63.4031 33.3803 62.3565ZM25.4394 39.9811C28.6673 41.5816 30.8736 44.6946 31.3094 48.2711C31.4194 49.6671 31.3818 51.0741 31.1894 52.4611C31.1286 53.684 30.8319 54.8783 30.3194 55.9911C29.6538 57.0589 28.7515 57.9557 27.6794 58.6211C25.4274 60.2509 22.7476 61.1887 19.9694 61.3011C17.2482 61.3685 14.6959 60.1094 13.1094 57.9311C11.5407 55.5595 11.6415 52.3078 11.8594 50.0711C12.3169 45.3593 14.4304 41.4001 17.3794 39.7411C19.9515 38.2934 22.7692 38.6952 25.4394 39.9811Z" fill-rule="evenodd"  fill="#000000" >
</path>
<path d="M76.0517 36.0754C74.8789 36.2528 73.8635 36.986 73.3317 38.0454C73.0407 38.7192 73.0975 39.4845 73.4717 40.1154C73.8476 40.7463 74.5024 41.1588 75.2317 41.2254C75.2317 41.2254 75.4099 41.2197 75.5017 41.2054C77.0106 40.9769 77.4193 39.3075 77.5717 38.6754C78.2543 35.8852 79.4604 33.2493 81.1217 30.9054C81.3469 30.59 81.3705 30.1723 81.1817 29.8354C80.9912 29.4974 80.618 29.2969 80.2317 29.3254L73.7817 29.8054C73.0178 29.8054 72.3306 30.2648 72.0517 30.9754L70.1917 34.5854C69.9301 35.0961 69.6614 35.611 69.3617 36.0954C69.3496 35.9169 69.2839 35.743 69.1817 35.5954C68.3329 34.5301 66.8008 34.3093 65.6817 35.0854C64.8294 35.7116 64.2519 36.6439 64.0717 37.6854C63.8829 38.3247 63.9897 39.0148 64.3517 39.5754C64.7363 40.0599 65.3133 40.35 65.9317 40.3654C67.4302 40.4321 68.8822 39.8232 69.8817 38.7054C70.7306 37.7472 71.4282 36.6684 71.9617 35.5054L73.8217 31.8954C73.8356 31.8657 73.8717 31.8054 73.8717 31.8054L73.8905 31.8054C74.0101 31.8048 74.1296 31.7904 78.3717 31.4754C77.5159 32.9241 76.8091 34.4539 76.2617 36.0454C76.1907 36.0454 76.0517 36.0754 76.0517 36.0754ZM66.0918 38.3697C66.0537 38.3697 66.0195 38.3597 65.9818 38.3597C65.9818 38.2835 66.0033 38.2041 66.0218 38.1297C66.1034 37.593 66.3699 37.1034 66.7818 36.7497C67.0398 36.5778 67.4438 36.5988 67.5418 36.7397C67.7776 37.0776 68.1914 37.2365 68.5918 37.1397C68.5408 37.1958 68.4957 37.2567 68.4418 37.3097C67.8516 37.988 66.991 38.3697 66.0918 38.3697ZM75.2808 39.2387C75.3959 38.9603 75.4947 38.6673 75.5808 38.3787C75.4049 38.4813 75.2603 38.6357 75.1708 38.8187C75.1387 38.964 75.1827 39.1169 75.2808 39.2287L75.2808 39.2387Z" fill-rule="evenodd"  fill="#000000" >
</path>
<path d="M48.2514 26.8318C47.0524 25.6465 46.9117 23.7536 47.9314 22.4118C48.7537 21.405 49.8172 20.6192 51.0214 20.1318C51.1033 20.0897 51.1909 20.0599 51.2814 20.0418C50.8314 17.234 50.4943 14.3938 50.2814 11.5718C50.2435 11.2509 50.2687 10.9267 50.3514 10.6118C50.5255 10.1144 50.8552 9.67868 51.2914 9.38185C52.262 8.61971 53.323 7.98125 54.4514 7.48185C54.779 7.33142 55.1692 7.37125 55.4614 7.58185C55.7536 7.79444 55.9011 8.14284 55.8614 8.50185C55.8218 8.85885 55.5933 9.16945 55.2614 9.31185C54.2856 9.74506 53.3719 10.302 52.5314 10.9618C52.4305 11.03 52.3364 11.1056 52.2614 11.2018L52.2814 11.4218C52.5116 14.4584 52.8802 17.5214 53.3914 20.5218C53.8146 22.0782 53.7638 23.7336 53.2414 25.2618C52.7475 26.3148 51.8006 27.0871 50.6714 27.3618C49.8232 27.5845 48.9289 27.3874 48.2514 26.8318ZM51.4136 24.4472C51.1784 24.9286 50.7424 25.2744 50.2236 25.4072C49.9884 25.4814 49.7321 25.4435 49.5336 25.2972C49.1087 24.9413 49.2034 24.091 49.5736 23.5672C50.1272 22.9184 50.8273 22.4069 51.6136 22.0772C51.7586 22.87 51.6894 23.6902 51.4136 24.4472Z" fill-rule="evenodd"  fill="#000000" >
</path>
<path d="M87.9671 0.15C88.2706 0.337072 88.448 0.673104 88.4371 1.03C88.427 1.3869 88.2316 1.71018 87.9171 1.88C87.4773 2.10024 87.0106 2.27467 86.5371 2.41C85.7709 2.65147 85.3032 2.83025 85.1771 3.15C85.1176 3.48567 85.1356 3.83097 85.2271 4.16L85.2471 4.27C85.514 5.80505 85.5418 7.37433 85.3471 8.92C85.2648 9.92833 84.9392 10.9069 84.3971 11.76C83.7882 12.6741 82.7751 13.2342 81.6771 13.27C80.9658 13.2819 80.2834 12.9794 79.8071 12.45C79.3435 11.9087 79.1842 11.1759 79.3771 10.49C79.6349 9.54137 80.3228 8.76353 81.2371 8.4C81.931 8.1373 82.6884 8.07804 83.4171 8.22C83.5286 7.01531 83.4828 5.80275 83.2771 4.61L83.2571 4.5C83.0788 3.81142 83.0986 3.08797 83.3171 2.41C83.8409 1.39769 84.8107 0.691765 85.9371 0.51C86.29 0.41182 86.6361 0.27921 86.9671 0.12C87.2816 -0.0498241 87.6626 -0.0383986 87.9671 0.15ZM81.5737 11.2633C81.4822 11.2633 81.3928 11.2139 81.3237 11.1533L81.3222 11.1514C81.3101 11.1365 81.283 11.103 81.3137 10.9833C81.4148 10.6682 81.649 10.4127 81.9537 10.2833C82.2857 10.1575 82.6436 10.123 82.9937 10.1833C82.9284 10.3336 82.8568 10.4783 82.7637 10.6133C82.5107 11.0248 82.0567 11.2633 81.5737 11.2633Z" fill-rule="evenodd"  fill="#000000" >
</path>
</svg>
