<?xml version="1.0" standalone="no"?><!DOCTYPE svg PUBLIC "-//W3C//DTD SVG 1.1//EN" "http://www.w3.org/Graphics/SVG/1.1/DTD/svg11.dtd"><svg t="1748261436649" class="icon" viewBox="0 0 1301 1024" version="1.1" xmlns="http://www.w3.org/2000/svg" p-id="70730" xmlns:xlink="http://www.w3.org/1999/xlink" width="254.1015625" height="200"><path d="M852.20572 626.597838h425.180338a24.498096 24.498096 0 0 1 24.600598 24.600598V931.747757a24.498096 24.498096 0 0 1-24.600598 24.498096h-57.298893l-18.142941 67.754147-67.549142-67.549142H852.20572a24.498096 24.498096 0 0 1-24.498095-24.703101V651.198436a24.498096 24.498096 0 0 1 24.498095-24.600598z" fill="#FFC646" p-id="70731"></path><path d="M1028.099997 0.000103H62.834028A62.731525 62.731525 0 0 0 0 62.731628V781.069093a62.834028 62.834028 0 0 0 62.834028 62.834028h146.783569l46.228624 172.7167 172.819202-172.7167h599.434574a62.834028 62.834028 0 0 0 62.731525-62.834028V62.731628A62.731525 62.731525 0 0 0 1028.099997 0.000103z" fill="#FF5B00" opacity=".7" p-id="70732"></path><path d="M858.76588 301.459932H207.157537a40.180977 40.180977 0 1 1 0-80.259451h651.608343a40.180977 40.180977 0 0 1 0 80.259451zM659.911045 557.818665H207.157537a40.180977 40.180977 0 1 1 0-80.361954h452.753508a40.180977 40.180977 0 0 1 0 80.361954z" fill="#FFFFFF" p-id="70733"></path></svg>