<?xml version="1.0" standalone="no"?><!DOCTYPE svg PUBLIC "-//W3C//DTD SVG 1.1//EN" "http://www.w3.org/Graphics/SVG/1.1/DTD/svg11.dtd"><svg t="1748261753845" class="icon" viewBox="0 0 1024 1024" version="1.1" xmlns="http://www.w3.org/2000/svg" p-id="76939" xmlns:xlink="http://www.w3.org/1999/xlink" width="200" height="200"><path d="M442.368 855.04s0-1.024 0 0c-2.048 3.072-5.12 6.144-7.168 9.216-1.024-1.024-1.024-2.048-1.024-3.072 1.024-2.048 2.048-4.096 3.072-7.168 0 0 0-1.024 1.024-1.024l-6.144 6.144c1.024-2.048 2.048-3.072 2.048-5.12-1.024 1.024-1.024 2.048-2.048 2.048-2.048 2.048-2.048 3.072-3.072 4.096 0 1.024-1.024 0-1.024 0-1.024-1.024-1.024-2.048 0-4.096 1.024-1.024 1.024-2.048 1.024-3.072-4.096 3.072-7.168 7.168-10.24 11.264-1.024-1.024-1.024-2.048-1.024-2.048v-1.024c1.024-3.072 2.048-5.12 4.096-8.192v-1.024c-1.024 1.024-2.048 2.048-3.072 4.096-1.024 1.024-2.048 2.048-3.072 4.096 0 1.024-1.024 1.024-1.024 0-1.024-1.024-1.024-3.072 0-4.096 1.024-2.048 2.048-5.12 2.048-6.144-1.024 1.024-3.072 4.096-4.096 6.144h-1.024c0 1.024 0 3.072-2.048 3.072-1.024-1.024-1.024-1.024-1.024-3.072 0 0-1.024 0-1.024 1.024 0-1.024-1.024-1.024-1.024-2.048 0 1.024 1.024 1.024 1.024 2.048v1.024l-2.048 2.048c-1.024-1.024-2.048-3.072-2.048-4.096 0 1.024 1.024 2.048 1.024 3.072 1.024 1.024 0 2.048 0 3.072l-1.024 1.024c-2.048-3.072-3.072-5.12-5.12-8.192 0 0 0 1.024 1.024 1.024 1.024 2.048 2.048 5.12 3.072 7.168v1.024l-2.048 2.048v-1.024c0-1.024 1.024-1.024 1.024-2.048l-1.024 1.024s0-1.024-1.024-1.024c-2.048-3.072-4.096-7.168-6.144-10.24 2.048 4.096 4.096 8.192 5.12 12.288 0 0 0 1.024-1.024 1.024-1.024-1.024-1.024-2.048-2.048-4.096-1.024-1.024-1.024-2.048-2.048-3.072 0 0 0-1.024 1.024-1.024 0 0 0 1.024-1.024 1.024-2.048-3.072-3.072-5.12-5.12-8.192 1.024 3.072 2.048 6.144 4.096 9.216-1.024 1.024-1.024 2.048-2.048 2.048-1.024-1.024-1.024-2.048-2.048-3.072 0-1.024 1.024-2.048 1.024-2.048l-2.048 2.048c-1.024-1.024-1.024-2.048-2.048-3.072 0 1.024 1.024 2.048 1.024 3.072l-2.048 2.048c-1.024-2.048-3.072-4.096-4.096-6.144 0 1.024 1.024 2.048 1.024 3.072 1.024 1.024 1.024 3.072 2.048 4.096-2.048 2.048-3.072 4.096-5.12 6.144-1.024-1.024-2.048-3.072-3.072-4.096 1.024 1.024 1.024 2.048 2.048 3.072 1.024 1.024 0 2.048-1.024 4.096l-1.024-1.024c-1.024-2.048-3.072-5.12-4.096-7.168v-1.024c1.024-2.048 2.048-5.12 3.072-7.168-2.048 3.072-5.12 7.168-7.168 10.24-1.024-1.024-1.024-2.048-1.024-3.072 1.024-2.048 2.048-4.096 3.072-7.168 0 0 0-1.024 1.024-1.024-2.048 2.048-3.072 4.096-5.12 6.144v-1.024c0-1.024 1.024-2.048 1.024-3.072l-2.048 2.048c0-3.072 1.024-6.144 1.024-10.24 1.024-5.12 2.048-11.264 3.072-16.384 0-1.024 1.024-2.048 2.048-3.072 3.072-3.072 4.096-5.12 3.072-9.216-1.024-4.096 1.024-7.168 3.072-10.24 1.024-2.048 3.072-2.048 5.12-1.024s4.096 0 6.144-1.024c1.024 0 1.024-3.072 0-5.12l-3.072-6.144c-1.024-2.048 0-3.072 2.048-4.096 2.048-1.024 4.096-3.072 5.12-5.12 1.024-1.024 1.024-2.048-1.024-3.072-2.048-1.024-3.072-1.024-5.12 0-3.072 2.048-3.072 2.048-6.144-1.024-2.048-2.048-4.096-3.072-7.168-1.024-1.024 1.024-2.048 1.024-3.072 1.024l1.024 1.024c-1.024 0-1.024 1.024-2.048 1.024l-1.024-1.024c-1.024-1.024-3.072-1.024-4.096 0-1.024 1.024-1.024 2.048 0 4.096 1.024 1.024 1.024 2.048 2.048 4.096-1.024 2.048-3.072 2.048-5.12 2.048-3.072-1.024-6.144-1.024-9.216 0h-7.168c-2.048 0-4.096-1.024-7.168-1.024-6.144 0-11.264 0-17.408-2.048H309.248c-2.048-1.024-4.096 0-5.12 2.048-4.096 3.072-6.144 7.168-5.12 12.288v5.12c1.024 7.168-1.024 12.288-5.12 18.432-2.048 2.048-3.072 5.12-4.096 8.192-1.024 2.048 0 5.12 1.024 7.168 0 1.024 1.024 1.024 2.048 2.048v-1.024c-1.024-3.072 0-6.144 2.048-9.216 2.048-2.048 2.048-4.096 1.024-6.144v-3.072c3.072-5.12 4.096-10.24 4.096-15.36v-1.024V827.392c1.024 4.096 0 8.192-1.024 11.264v3.072c0 5.12 1.024 10.24 2.048 15.36-1.024 1.024-2.048 2.048-3.072 4.096 0 1.024-1.024 1.024-1.024 0-1.024-1.024-1.024-3.072 0-4.096 1.024-2.048 2.048-5.12 2.048-6.144-1.024 1.024-3.072 4.096-4.096 6.144h-1.024c0 1.024 0 3.072-2.048 3.072-1.024-1.024-1.024-1.024-1.024-3.072 0 0-1.024 0-1.024 1.024 3.072 9.216 8.192 17.408 14.336 24.576 15.36 17.408 36.864 28.672 62.464 28.672 25.6 0 49.152-12.288 63.488-30.72 1.024-2.048 3.072-4.096 4.096-6.144 1.024-1.024 1.024-2.048 2.048-3.072l1.024-1.024s0-1.024 1.024-1.024v-1.024s0-1.024 1.024-1.024c-1.024-1.024-1.024-2.048-2.048-3.072v-1.024c3.072-3.072 4.096-6.144 5.12-8.192z m-91.136 6.144c1.024-2.048 1.024-3.072 2.048-5.12v-1.024c0 1.024-1.024 1.024-1.024 2.048 1.024-3.072 2.048-7.168 1.024-10.24-1.024-2.048 0-5.12 0-7.168 0 0 1.024-1.024 2.048-1.024s2.048 0 2.048 2.048c0 6.144 1.024 12.288 2.048 18.432-3.072 3.072-6.144 6.144-8.192 9.216v-2.048s0-1.024 1.024-1.024l-1.024 1.024v-5.12c0 1.024 0 0 0 0z m-36.864-2.048c-1.024 1.024-1.024 2.048-2.048 3.072 0-1.024-1.024-1.024-1.024-2.048 0 1.024 1.024 2.048 1.024 3.072 0 1.024-1.024 0-1.024 0-1.024-1.024-1.024-2.048 0-4.096 1.024-1.024 1.024-2.048 1.024-3.072-2.048 2.048-4.096 4.096-5.12 6.144v-7.168c0-3.072 1.024-6.144 2.048-8.192 1.024-4.096 1.024-8.192 2.048-12.288l3.072-6.144h1.024v5.12c0 2.048-1.024 4.096-2.048 6.144v3.072c0 4.096 1.024 9.216 1.024 16.384 1.024-1.024 0-1.024 0 0z m29.696-1.024c0 1.024 0 2.048-1.024 3.072 0 0 0-1.024 1.024-1.024l-2.048 2.048c-1.024-1.024-1.024-1.024-1.024-3.072 0 0-1.024 0-1.024 1.024 0-1.024-1.024-1.024-1.024-2.048 0 1.024 1.024 1.024 1.024 2.048v1.024l-2.048 2.048c0-1.024 1.024-2.048 1.024-3.072l-2.048 2.048c0-1.024-1.024-1.024-1.024-2.048 0 1.024 1.024 2.048 1.024 2.048l-2.048 2.048c-1.024-2.048-3.072-4.096-4.096-6.144 0 0 0 1.024 1.024 1.024 1.024 2.048 2.048 4.096 2.048 6.144-1.024 1.024-2.048 2.048-2.048 3.072l-6.144-9.216s0-1.024 1.024-1.024l-1.024 1.024s0-1.024-1.024-1.024c0 0 0 1.024 1.024 1.024-1.024 1.024-1.024 2.048-2.048 3.072 0-1.024-1.024-1.024-1.024-2.048v-2.048-1.024c-1.024-3.072-1.024-7.168 0-10.24l3.072-9.216c0-1.024 0-2.048 1.024-3.072 6.144 4.096 12.288 3.072 19.456 2.048 1.024 0 2.048 0 3.072 2.048 0 4.096 1.024 8.192 1.024 12.288 0 2.048 0 3.072 1.024 5.12-5.12 0-6.144 1.024-7.168 2.048z m60.416 7.168s0-1.024 0 0c1.024-1.024 1.024-1.024 0 0 0-1.024 0 0 0 0z m-7.168 17.408h6.144-6.144z" fill="#d4237a" p-id="76940"></path><path d="M846.848 489.472l-16.384-73.728c29.696-20.48 49.152-54.272 49.152-93.184 0-62.464-50.176-112.64-112.64-112.64-30.72 0-57.344 12.288-77.824 31.744l-67.584-32.768c1.024-5.12 1.024-11.264 1.024-16.384 0-62.464-50.176-112.64-112.64-112.64s-112.64 50.176-112.64 112.64c0 6.144 1.024 12.288 2.048 18.432l-74.752 35.84c-20.48-22.528-50.176-36.864-82.944-36.864-62.464 0-112.64 50.176-112.64 112.64 0 44.032 25.6 81.92 62.464 100.352l-15.36 65.536c-60.416 2.048-109.568 51.2-109.568 112.64 0 62.464 50.176 112.64 112.64 112.64 15.36 0 29.696-3.072 43.008-8.192l53.248 66.56c-13.312 18.432-21.504 40.96-21.504 66.56 0 62.464 50.176 112.64 112.64 112.64 52.224 0 96.256-35.84 109.568-84.992h71.68c12.288 48.128 56.32 83.968 108.544 83.968 62.464 0 112.64-50.176 112.64-112.64 0-23.552-7.168-46.08-20.48-64.512l53.248-66.56c12.288 5.12 25.6 7.168 39.936 7.168 62.464 0 112.64-50.176 112.64-112.64-1.024-59.392-48.128-107.52-107.52-111.616z m-95.232 112.64c0-49.152 39.936-89.088 89.088-89.088 49.152 0 89.088 39.936 89.088 89.088 0 49.152-39.936 89.088-89.088 89.088-49.152 0-89.088-39.936-89.088-89.088z m15.36-367.616c49.152 0 89.088 39.936 89.088 89.088s-39.936 89.088-89.088 89.088c-49.152 0-89.088-39.936-89.088-89.088s39.936-89.088 89.088-89.088zM509.952 104.448c49.152 0 89.088 39.936 89.088 89.088s-39.936 89.088-89.088 89.088-89.088-39.936-89.088-89.088 39.936-89.088 89.088-89.088z m-88.064 159.744c20.48 25.6 52.224 41.984 88.064 41.984s67.584-17.408 89.088-43.008l59.392 28.672c-3.072 10.24-5.12 20.48-5.12 31.744 0 62.464 50.176 112.64 112.64 112.64h9.216l15.36 65.536c-36.864 18.432-62.464 56.32-62.464 101.376 0 27.648 9.216 52.224 25.6 71.68L703.488 737.28c-14.336-7.168-30.72-11.264-48.128-11.264-52.224 0-96.256 35.84-108.544 83.968h-71.68c-13.312-48.128-56.32-82.944-108.544-82.944-16.384 0-32.768 4.096-47.104 10.24l-51.2-64.512c15.36-19.456 24.576-43.008 24.576-69.632 0-43.008-24.576-80.896-60.416-99.328l15.36-66.56c59.392-3.072 107.52-52.224 107.52-112.64 0-9.216-1.024-17.408-3.072-25.6l69.632-34.816zM655.36 926.72c-49.152 0-89.088-39.936-89.088-89.088 0-49.152 39.936-89.088 89.088-89.088 49.152 0 89.088 39.936 89.088 89.088 0 49.152-39.936 89.088-89.088 89.088z m-289.792 1.024c-49.152 0-89.088-39.936-89.088-89.088 0-49.152 39.936-89.088 89.088-89.088s89.088 39.936 89.088 89.088c0 49.152-39.936 89.088-89.088 89.088zM179.2 513.024c49.152 0 89.088 39.936 89.088 89.088 0 49.152-39.936 89.088-89.088 89.088s-89.088-39.936-89.088-89.088c0-49.152 39.936-89.088 89.088-89.088z m62.464-278.528c49.152 0 89.088 39.936 89.088 89.088s-39.936 89.088-89.088 89.088-89.088-39.936-89.088-89.088 39.936-89.088 89.088-89.088z" fill="#d4237a" p-id="76941"></path><path d="M377.856 454.656l111.616 38.912c4.096 2.048 8.192 2.048 12.288 2.048 3.072 0 6.144 0 9.216-1.024l99.328-24.576h1.024s12.288 1.024 12.288 21.504v9.216c0 1.024 1.024 2.048 1.024 2.048l-4.096 5.12c-1.024 2.048-2.048 4.096-2.048 6.144v11.264s7.168 4.096 14.336 0v-11.264c0-2.048-1.024-4.096-2.048-5.12l-4.096-5.12c1.024 0 1.024-1.024 1.024-2.048v-10.24c0-13.312-5.12-19.456-10.24-22.528h1.024c-18.432-9.216-60.416-13.312-90.112-14.336-2.048 5.12-9.216 7.168-17.408 7.168-9.216 0-18.432-3.072-18.432-10.24s9.216-10.24 18.432-10.24c8.192 0 15.36 2.048 17.408 8.192 0 0 25.6 1.024 51.2 4.096 22.528 3.072 37.888 7.168 45.056 13.312l25.6-6.144c4.096-1.024 4.096-6.144 0-7.168l-126.976-35.84c-4.096-1.024-7.168-2.048-11.264-2.048-3.072 0-7.168 0-10.24 1.024l-124.928 29.696c-2.048 2.048-3.072 7.168 1.024 8.192z" fill="#d4237a" p-id="76942"></path><path d="M498.688 452.608a13.312 5.12 0 1 0 26.624 0 13.312 5.12 0 1 0-26.624 0Z" fill="#d4237a" p-id="76943"></path><path d="M632.832 541.696c-8.192 5.12-14.336 0-14.336 0l-2.048 27.648-2.048 98.304h22.528s-2.048-88.064-2.048-98.304c1.024-9.216-2.048-27.648-2.048-27.648zM584.704 490.496s-1.024-2.048-1.024-6.144L513.024 501.76c-3.072 1.024-7.168 1.024-10.24 1.024-5.12 0-10.24-1.024-14.336-2.048l-46.08-16.384c1.024 4.096 1.024 7.168 1.024 8.192-1.024 4.096-13.312 34.816-19.456 71.68-1.024 7.168 1.024 14.336 7.168 18.432 11.264 9.216 32.768 25.6 60.416 34.816 0 0 63.488-4.096 106.496-30.72 7.168-5.12 11.264-13.312 9.216-21.504-6.144-17.408-13.312-49.152-22.528-74.752zM703.488 892.928h-16.384v-98.304h-19.456v98.304h-14.336v-67.584h-20.48v67.584h-14.336v-41.984h-19.456v46.08H709.632V777.216h-6.144zM726.016 294.912v24.576h9.216v-24.576H757.76v-9.216h-22.528v-23.552h-9.216v23.552h-22.528v9.216zM775.168 285.696h55.296v8.192h-55.296zM748.544 333.824l-17.408 17.408-16.384-16.384-6.144 6.144 16.384 16.384-16.384 16.384 6.144 6.144 16.384-16.384 16.384 16.384 6.144-6.144-16.384-16.384 17.408-17.408zM775.168 342.016h55.296v8.192h-55.296zM775.168 363.52h55.296v8.192h-55.296zM243.712 323.584l-46.08 46.08c-2.048 2.048-3.072 6.144-2.048 9.216 1.024 3.072 4.096 5.12 8.192 5.12h69.632c5.12 0 8.192-4.096 8.192-8.192s-4.096-8.192-8.192-8.192H225.28l37.888-36.864c3.072-4.096 3.072-9.216 0-12.288l-36.864-36.864h48.128c5.12 0 8.192-4.096 8.192-8.192 0-5.12-4.096-8.192-8.192-8.192H204.8c-3.072 0-7.168 2.048-8.192 5.12-1.024 3.072 0 7.168 2.048 9.216l45.056 44.032zM138.24 664.576h79.872c8.192 0 14.336-7.168 14.336-15.36v-91.136c0-8.192-6.144-15.36-14.336-15.36h-79.872c-8.192 0-14.336 7.168-14.336 15.36v91.136c-1.024 9.216 6.144 15.36 14.336 15.36z m50.176-8.192h-20.48v-20.48h20.48v20.48z m0-26.624h-20.48v-20.48h20.48v20.48z m0-26.624h-20.48v-20.48h20.48v20.48z m29.696 53.248h-20.48v-47.104h20.48v47.104z m0-53.248h-20.48v-20.48h20.48v20.48z m-11.264-53.248h8.192v3.072h-7.168v-3.072z m-10.24 0h8.192v3.072h-7.168v-3.072z m-58.368 6.144h79.872v20.48h-79.872v-20.48z m0 26.624h20.48v20.48h-20.48v-20.48z m0 26.624h20.48v20.48h-20.48v-20.48z m0 26.624h20.48v20.48h-20.48v-20.48zM834.56 585.728h-1.024s-8.192 5.12-11.264 6.144l-1.024 1.024v18.432s0 1.024 1.024 1.024h1.024l11.264-3.072c1.024 0 1.024-1.024 1.024-1.024v-21.504l-1.024-1.024z m-2.048 21.504l-8.192 2.048V593.92c2.048-1.024 8.192-5.12 8.192-5.12v18.432zM815.104 593.92c-1.024 0-8.192 3.072-11.264 3.072-1.024 0-1.024 1.024-1.024 1.024v18.432h1.024l11.264-2.048c1.024 0 1.024-1.024 1.024-1.024v-17.408s0-1.024-1.024-1.024c1.024-1.024 1.024-1.024 0-1.024z m-9.216 20.48v-14.336c2.048 0 7.168-2.048 8.192-2.048v14.336l-8.192 2.048zM797.696 599.04c-1.024 0-6.144 1.024-7.168 1.024-1.024 0-1.024 1.024-1.024 1.024v18.432h1.024l7.168-1.024c1.024 0 1.024-1.024 1.024-1.024v-17.408s0-1.024-1.024-1.024c1.024 0 0-1.024 0 0z m-1.024 16.384l-5.12 1.024v-14.336c1.024 0 3.072-1.024 5.12-1.024v14.336zM889.856 602.112h-7.168s-1.024 0-2.048 1.024-1.024 1.024-1.024 2.048v3.072c0 2.048 1.024 4.096 3.072 4.096h6.144c2.048 0 3.072-2.048 3.072-4.096V604.16c0-1.024 0-2.048-2.048-2.048z m0 2.048v4.096h-6.144V604.16h6.144zM897.024 658.432v-21.504c0-1.024-1.024-3.072-3.072-3.072h-9.216c-1.024 0-3.072 1.024-3.072 3.072v3.072H870.4v-3.072c0-1.024-1.024-3.072-3.072-3.072h-16.384c-1.024 0-3.072 1.024-3.072 3.072v2.048h-63.488c-1.024 0-3.072 1.024-3.072 3.072v9.216c0 1.024 0 1.024 1.024 2.048 1.024 0 1.024 1.024 2.048 1.024 0 0 108.544 7.168 109.568 7.168 2.048 0 3.072-1.024 3.072-3.072z m-5.12-3.072c-9.216-1.024-101.376-7.168-104.448-7.168V645.12h63.488c1.024 0 3.072-1.024 3.072-3.072v-2.048h11.264v3.072c0 1.024 1.024 3.072 3.072 3.072h16.384c1.024 0 3.072-1.024 3.072-3.072v-3.072h4.096V655.36z" fill="#d4237a" p-id="76944"></path><path d="M784.384 632.832H890.88c5.12 0 9.216-4.096 9.216-10.24v-63.488-1.024l-7.168-7.168H889.856c-1.024-1.024-2.048-2.048-4.096-2.048h-6.144v-2.048H890.88v2.048c0 1.024 1.024 1.024 1.024 1.024 1.024 0 1.024-1.024 1.024-1.024v-3.072c0-1.024-1.024-1.024-1.024-1.024h-26.624c-1.024 0-1.024 1.024-1.024 1.024v3.072c0 1.024 1.024 1.024 1.024 1.024 1.024 0 1.024-1.024 1.024-1.024v-2.048h11.264v2.048H870.4c-2.048 0-3.072 1.024-4.096 2.048h-2.048c-1.024 0-1.024 0-2.048 1.024 0 0-26.624 25.6-45.056 32.768-18.432 7.168-29.696 8.192-33.792 8.192-1.024 0-1.024 1.024-1.024 2.048v35.84c-1.024 0 1.024 2.048 2.048 2.048z m3.072-36.864c5.12 0 15.36-2.048 31.744-8.192 17.408-7.168 40.96-28.672 46.08-32.768h2.048c1.024 0 2.048-1.024 3.072-2.048h15.36c0 1.024 1.024 2.048 3.072 2.048h2.048l4.096 4.096v63.488c0 2.048 0 4.096-3.072 4.096H787.456v-30.72z" fill="#d4237a" p-id="76945"></path><path d="M866.304 595.968h22.528c2.048 0 3.072-1.024 3.072-3.072v-22.528c0-3.072-2.048-3.072-3.072-3.072h-22.528c-2.048 0-3.072 0-3.072 3.072v22.528c0 3.072 1.024 3.072 3.072 3.072z m0-25.6h23.552v22.528h-23.552v-22.528zM891.904 617.472c0-1.024-1.024-1.024-1.024-1.024h-24.576c-1.024 0-1.024 1.024-1.024 1.024 0 1.024 1.024 1.024 1.024 1.024H890.88l1.024-1.024zM851.968 573.44h-1.024c-2.048 2.048-10.24 7.168-11.264 8.192v24.576s0 1.024 1.024 1.024h1.024l11.264-4.096c1.024 0 1.024-1.024 1.024-1.024v-27.648c-1.024 0-2.048 0-2.048-1.024z m-2.048 28.672l-8.192 3.072V583.68s6.144-4.096 8.192-6.144v24.576zM866.304 611.328h6.144c2.048 0 3.072-2.048 3.072-4.096V604.16c0-2.048-1.024-3.072-3.072-3.072h-7.168c-1.024 0-3.072 0-3.072 3.072v3.072c1.024 2.048 2.048 4.096 4.096 4.096z m0-7.168h7.168v4.096h-6.144V604.16zM878.592 565.248c3.072 0 5.12-2.048 5.12-5.12s-2.048-5.12-5.12-5.12-5.12 2.048-5.12 5.12 2.048 5.12 5.12 5.12z m0-6.144c1.024 0 2.048 1.024 2.048 2.048s-1.024 2.048-2.048 2.048-2.048-1.024-2.048-2.048 0-2.048 2.048-2.048zM538.624 236.544c28.672-3.072 51.2-27.648 51.2-56.32 0-31.744-25.6-56.32-56.32-56.32-24.576 0-45.056 15.36-53.248 36.864h-40.96v77.824h99.328z m-51.2-56.32c0-3.072 0-6.144 1.024-8.192h26.624l-26.624 19.456c-1.024-4.096-1.024-7.168-1.024-11.264z m38.912-3.072V225.28c-14.336-2.048-26.624-10.24-33.792-22.528l33.792-25.6zM498.688 225.28h-36.864l22.528-16.384c3.072 7.168 8.192 12.288 14.336 16.384z m33.792-90.112c24.576 0 45.056 20.48 45.056 45.056 0 22.528-17.408 41.984-39.936 45.056v-64.512H491.52c8.192-15.36 23.552-25.6 40.96-25.6z m-81.92 36.864h26.624c0 3.072-1.024 6.144-1.024 8.192 0 6.144 1.024 12.288 3.072 18.432L450.56 220.16v-48.128z" fill="#d4237a" p-id="76946"></path></svg>