<?xml version="1.0" standalone="no"?><!DOCTYPE svg PUBLIC "-//W3C//DTD SVG 1.1//EN" "http://www.w3.org/Graphics/SVG/1.1/DTD/svg11.dtd"><svg t="1748258131270" class="icon" viewBox="0 0 1024 1024" version="1.1" xmlns="http://www.w3.org/2000/svg" p-id="44929" xmlns:xlink="http://www.w3.org/1999/xlink" width="200" height="200"><path d="M682.666667 1024h-256v-42.666667a85.333333 85.333333 0 0 1 85.333333-85.333333h85.333333a85.333333 85.333333 0 0 1 85.333334 85.333333v42.666667z m341.333333 0h-256v-42.666667a85.333333 85.333333 0 0 1 85.333333-85.333333h85.333334a85.333333 85.333333 0 0 1 85.333333 85.333333v42.666667zM288.384 384c27.690667 0 55.168-9.088 72.192-18.602667 32.213333-17.92 114.986667-70.101333 148.693333-90.624a21.546667 21.546667 0 0 1 27.904 4.821334l0.341334 0.469333a21.461333 21.461333 0 0 1-1.834667 29.013333c-26.538667 25.472-104.234667 99.328-143.786667 137.088a119.210667 119.210667 0 0 0-36.394666 81.237334c-4.053333 94.165333-11.136 294.912-14.122667 376.874666a35.754667 35.754667 0 0 1-35.712 34.389334h-0.042667c-18.944 0-33.536-14.805333-35.669333-33.621334-4.736-41.856-14.037333-139.946667-18.176-179.712-1.706667-16.384-11.946667-26.154667-24.96-26.24-12.970667-0.042667-22.314667 9.642667-23.424 25.984-2.602667 39.296-11.306667 138.581333-14.549333 180.053334a36.053333 36.053333 0 0 1-35.84 33.536h-0.042667a35.968 35.968 0 0 1-35.925333-34.474667l-15.744-382.464-54.912 99.413333a24.746667 24.746667 0 0 1-30.506667 11.093334H15.829333a24.746667 24.746667 0 0 1-14.890666-29.781334l53.077333-187.434666A42.666667 42.666667 0 0 1 95.061333 384h193.322667zM554.666667 682.666667a96 96 0 1 1-0.085334 192.085333A96 96 0 0 1 554.666667 682.666667z m341.333333 0a96 96 0 1 1-0.085333 192.085333A96 96 0 0 1 896 682.666667z m128-42.666667H384v-42.666667h341.333333v-42.666666h128v42.666666h128V42.666667H42.666667v298.666666l-42.666667 117.12V0h1024v640z m-256-256h-170.666667V341.333333h170.666667v42.666667zM229.290667 170.666667c52.949333 0 96 43.008 96 96S282.24 362.666667 229.290667 362.666667a96 96 0 0 1 0-192zM896 298.666667h-298.666667V256h298.666667v42.666667z m0-85.333334h-298.666667V170.666667h298.666667v42.666666z" p-id="44930"></path></svg>