<svg xmlns="http://www.w3.org/2000/svg" xmlns:xlink="http://www.w3.org/1999/xlink" width="95.7706298828125" height="95.9884033203125" viewBox="0 0 95.7706298828125 95.9884033203125" fill="none">
<path d="M32.3084 32.8004C33.1718 32.6137 33.9454 32.141 34.4968 31.4568C35.0226 30.9592 35.4756 30.5652 36.1339 31.1872C39.6046 34.513 44.9176 34.994 48.9355 32.3483C49.3928 32.0871 49.8544 31.8134 50.3289 31.519C51.0726 32.987 50.7563 35.0728 52.7054 35.7861C53.5731 35.9727 54.4664 36.01 55.3469 35.9022C57.5354 35.9146 59.5742 37.0302 60.7668 38.8672C61.2711 39.7339 61.6686 40.6545 61.9593 41.6124C63.622 46.0537 64.9128 50.6236 65.8275 55.2805C66.0413 56.5909 66.1139 58.1543 65.1009 59.0044C65.1009 59.0044 64.8145 59.2158 64.6607 59.2988C64.1862 59.4978 63.6904 59.6347 63.1817 59.7052C61.9764 59.9167 60.771 60.1364 59.5657 60.3562C59.2195 60.3894 58.8903 60.5097 58.604 60.7004C58.2449 61.0944 58.0526 61.6127 58.0654 62.1477C57.8688 64.304 57.6679 66.5807 58.5185 68.5836C58.698 68.8988 58.8091 69.6203 58.8091 69.6203C58.7707 70.5119 57.6807 70.8975 56.8002 71.0551C49.0893 72.3987 41.2289 72.689 33.4411 71.9135C32.1802 71.7891 30.7995 71.5693 30.0344 70.5741C29.0471 69.3052 29.56 67.493 29.8549 65.9213C30.1157 64.0635 30.2353 62.1933 30.214 60.3189C30.3507 55.3219 31.1116 50.3623 32.4751 45.5519C32.6204 45.0626 32.676 44.3577 32.193 44.1793L31.586 44.1793C29.7865 44.4738 27.9828 43.7315 26.3115 43.0058C25.0848 42.4833 23.7341 41.8115 23.3366 40.5342C22.7382 38.5645 24.512 35.8898 25.9354 34.6872C27.3117 33.5053 29.0599 32.8501 30.8722 32.8294C31.3509 32.8584 31.8297 32.846 32.3084 32.8004Z"   fill="#FD6229" >
</path>
<path d="M52.7001 35.79C53.5691 35.9767 54.462 36.0163 55.342 35.906C57.532 35.9201 59.5677 37.0345 60.76 38.8701C61.2653 39.7355 61.6658 40.6576 61.9542 41.6164C63.6151 46.0597 64.9085 50.6302 65.8216 55.2828C66.11 56.9996 65.9024 58.0574 64.9801 58.8635C64.5208 59.2397 64.0046 59.5451 63.4534 59.7629C63.4534 59.7629 63.3138 59.8166 63.2403 59.8053C63.2403 59.8053 63.0896 59.6781 63.0474 59.5847C61.7962 56.7705 61.4471 53.6509 60.9217 50.6161C60.6002 48.0084 59.7698 45.4883 58.4763 43.2031C57.3171 41.3929 54.8037 40.5699 52.7424 40.3804C51.55 40.4143 50.365 40.1541 49.2957 39.6252C46.9698 38.0442 47.1462 34.3334 48.9283 32.3536C49.3894 32.0906 49.8506 31.819 50.3227 31.5249C51.0668 32.9928 50.7526 35.0773 52.7001 35.79Z"   fill="#FFFFFF" >
</path>
<path d="M31.8248 47.2339C32.083 46.1168 32.2114 44.9739 32.2089 43.8279L28.2387 44.7179C27.7746 44.8182 27.1277 44.8551 26.9631 44.4846C26.417 45.3893 26.0187 46.3753 25.7831 47.405C25.7398 47.698 25.7437 47.9959 25.796 48.2876C26.0335 49.065 26.6662 49.6583 27.457 49.846C28.8869 50.2442 30.4175 49.7549 31.3509 48.5997C31.7899 48.0371 31.664 47.9288 31.8248 47.2339Z"   fill="#FD95FD" >
</path>
<path d="M34.738 94.6885C28.6262 95.1527 22.4836 95.0971 16.3774 94.5217C15.4843 94.5112 14.6164 94.2318 13.8852 93.7226C13.5838 93.371 13.447 92.9114 13.5056 92.4532C13.4945 88.7232 11.5883 83.3994 17.823 81.3234C19.5449 80.7871 21.3143 80.4251 23.106 80.2448C23.2846 80.2238 23.4716 80.2133 23.6614 80.1922L23.6921 80.1922C25.4754 80.027 27.2671 79.9564 29.0588 79.9834C32.8236 79.9999 36.5549 80.4176 40.2108 81.2303C40.4843 81.2753 40.7466 81.382 40.9755 81.5442C41.1234 81.7185 41.1708 81.9558 41.1011 82.1736C40.7746 84.3744 40.462 86.5646 40.1355 88.7653C39.982 90.287 39.6164 91.7802 39.047 93.1983C38.8908 93.6234 38.5949 93.9824 38.207 94.2153C37.5484 94.4902 36.8367 94.6269 36.1223 94.6164C35.6618 94.6374 35.1985 94.6674 34.738 94.6885Z"   fill="#FFFFFF" >
</path>
<path d="M61.3353 78.767C60.673 79.6531 59.2509 79.7763 58.2832 80.1743C57.0331 80.6887 55.8317 81.316 54.6971 82.0493C54.2299 82.3492 53.524 82.6344 53.198 82.1805C53.1107 82.0379 53.0594 81.8771 53.0466 81.7117L52.5229 78.3119C52.4998 78.077 52.4356 77.8477 52.333 77.6356C51.9068 76.8989 50.821 77.0357 50.0047 77.2741L44.9991 78.7259C43.7311 79.0943 41.8289 79.1935 40.779 80.0135C40.6892 80.0922 40.5917 80.1641 40.4915 80.2302C40.2785 80.3386 40.0449 80.4024 39.8036 80.4173C39.1824 80.4914 38.5561 80.5245 37.9297 80.5165C37.2289 80.6089 36.5307 80.3249 36.0918 79.7683C35.5142 78.694 38.7691 71.3972 37.673 71.0128C40.6969 72.0723 43.097 72.9482 46.4392 72.6095C49.4811 72.3016 52.451 71.4622 55.4929 71.1953C56.3811 71.0641 57.2872 71.1428 58.142 71.4234C59.8413 72.102 60.6397 74.0123 61.2711 75.7333C61.6331 76.7266 61.9719 77.9207 61.3353 78.767Z"   fill="#123BD9" >
</path>
<path d="M51.2011 18.6349C50.7096 17.4932 50.2154 16.3515 49.7239 15.2079C47.3532 17.8303 43.9507 19.2812 40.4176 19.1807C38.9813 19.1471 36.9178 18.1209 35.5763 18.4803C34.6008 18.7318 34.1631 19.8735 33.5537 20.6167C33.3387 20.9389 33.0161 21.1736 32.6423 21.2779L32.5988 21.2779C32.3325 18.9776 32.4887 16.6476 33.0596 14.4033C33.9941 11.1271 36.0166 8.26624 38.7944 6.29197C43.9635 2.86492 50.643 2.7066 55.9708 5.88221C56.4495 6.17276 56.9103 6.49126 57.3533 6.83582C58.5898 9.49551 58.0138 12.6897 57.2483 15.5636C56.8079 17.5845 56.004 19.5085 54.8801 21.2443C54.6369 21.6001 54.3143 21.8962 53.938 22.103C53.7613 22.1998 53.3619 22.2296 53.3619 22.2296C52.8371 20.8364 52.3199 19.4433 51.8104 18.0482C51.6108 18.2475 51.4111 18.4487 51.2011 18.6349Z"   fill="#F7CA49" >
</path>
<path d="M38.2983 81.7515C38.4497 81.9249 38.4976 82.165 38.427 82.3843C38.1039 84.5732 37.7884 86.7754 37.4628 88.9762C37.3089 90.4967 36.9429 91.989 36.375 93.4088C36.2186 93.8297 35.9233 94.1853 35.5371 94.4151C35.2847 94.5484 35.0147 94.6403 34.737 94.6863C28.6216 95.1501 22.4784 95.0953 16.3756 94.5203C15.4822 94.5084 14.614 94.2298 13.882 93.72C13.5817 93.3688 13.4454 92.9094 13.5034 92.4514C13.4933 88.7213 11.5853 83.3965 17.8218 81.3217C19.5406 80.7852 21.3099 80.4236 23.1018 80.2428C27.9452 80.0072 32.7961 80.4088 37.5335 81.4373C37.8111 81.4773 38.0736 81.5855 38.2983 81.7515Z"   fill="#FD95FD" >
</path>
<path d="M33.0452 48.3829C33.1406 48.4056 33.2262 48.4615 33.2862 48.5401C33.3356 48.6384 33.3498 48.751 33.3242 48.8591C33.2235 49.9695 33.115 51.0701 33.024 52.1805C32.972 52.9334 32.8554 53.6802 32.678 54.4127C32.6383 54.6024 32.5439 54.777 32.4062 54.9131C32.2164 55.0552 31.9825 55.1255 31.7459 55.1126C30.9594 55.1761 30.1738 55.2502 29.3768 55.2812C28.081 55.3689 26.779 55.2986 25.5 55.0711C25.1946 55.0484 24.9112 54.904 24.7135 54.6712C24.6173 54.4724 24.5767 54.2517 24.5979 54.0317C24.5979 52.1556 23.9906 49.4729 25.9607 48.4252C26.3544 48.2189 26.7737 48.0669 27.208 47.974C29.1552 47.5839 31.1713 47.7253 33.0452 48.3829Z"   fill="#FFFFFF" >
</path>
<path d="M29.7305 55.1226C29.632 55.2122 29.5065 55.2673 29.3735 55.2798C28.0779 55.3679 26.776 55.2974 25.497 55.0698C25.1917 55.047 24.9085 54.9031 24.7109 54.6695C24.6143 54.4713 24.5743 54.2502 24.5946 54.0306C24.5946 52.1551 23.9877 49.4717 25.958 48.4238C26.3513 48.2174 26.7705 48.0662 27.205 47.9729C28.2853 48.0177 29.3526 48.2263 30.3701 48.592C30.4661 48.6147 30.5516 48.6698 30.6107 48.7491C30.6612 48.8475 30.6747 48.9606 30.6489 49.0678C30.5436 50.1679 30.439 51.2797 30.3491 52.3798C30.2968 53.1362 30.1811 53.886 30.0026 54.6225C29.9607 54.812 29.8666 54.9846 29.7305 55.1226Z"   fill="#00D4FC" >
</path>
<path d="M21.0514 64.1489C20.8814 63.916 20.8065 63.6281 20.8424 63.342C20.8424 60.9319 19.7739 57.5149 23.2524 56.1735C24.0994 55.8643 24.9792 55.6498 25.873 55.5338L26.0836 55.5029C27.1038 55.3753 28.1239 55.3115 29.1425 55.3135C31.3887 55.3009 33.6069 55.5725 35.7642 56.1214C35.9233 56.1465 36.0715 56.2161 36.1932 56.3204C36.2805 56.4374 36.3086 56.5891 36.2696 56.7292C36.0902 58.1285 35.9124 59.5481 35.7236 60.9628C35.6456 61.935 35.4413 62.8936 35.1153 63.8126C35.0389 64.0774 34.8719 64.3074 34.6442 64.463C34.2839 64.6418 33.8845 64.7316 33.4805 64.7249C32.8316 64.7664 32.1702 64.809 31.5213 64.8399C28.4983 65.0699 25.4581 65.0109 22.446 64.6621C21.9375 64.6485 21.4476 64.4688 21.0514 64.1489Z"   fill="#FFFFFF" >
</path>
<path d="M22.446 64.6623C21.938 64.649 21.4481 64.4685 21.0512 64.1489C20.8819 63.9163 20.8069 63.6279 20.8431 63.3415C20.8431 60.9315 19.7741 57.5147 23.2526 56.174C24.0993 55.8639 24.9783 55.6493 25.8728 55.5339C28.3043 55.463 30.7345 55.7268 33.0936 56.3196C33.2526 56.3536 33.4 56.4255 33.5228 56.5295C33.6094 56.6439 33.6365 56.7914 33.5964 56.9275C33.4193 58.3429 33.2397 59.7582 33.0522 61.1726C32.9721 62.1455 32.7678 63.1032 32.4434 64.0231C32.3632 64.286 32.1978 64.5148 31.9716 64.6727C31.8345 64.7578 31.682 64.8154 31.5217 64.84C28.4982 65.0698 25.4592 65.0102 22.446 64.6623Z"   fill="#FD95FD" >
</path>
<path d="M18.5712 78.7134C18.3517 78.3288 18.2568 77.887 18.3003 77.4453C18.3003 73.704 16.9481 68.3806 21.3606 66.3056C22.6654 65.7317 24.0512 65.353 25.4687 65.1832C25.5339 65.1712 25.6684 65.1622 25.6684 65.1622C27.0621 64.9879 28.4361 64.9278 29.8081 64.9849C32.3465 65.051 34.8354 65.4672 37.2275 66.2215C37.4351 66.2665 37.6229 66.3762 37.7613 66.5355C37.87 66.7278 37.9016 66.9532 37.8483 67.1666C37.617 69.3572 37.3975 71.5584 37.1662 73.7476C37.0614 75.2516 36.8025 76.7406 36.3913 78.192C36.2983 78.5812 36.0908 78.9313 35.7923 79.1972C35.3474 79.4677 34.8334 79.6074 34.3135 79.5984C33.6334 79.651 32.9514 79.6976 32.2595 79.7441C28.2819 80.1348 24.2825 80.0582 20.3326 79.5143C19.6684 79.4722 19.0397 79.1882 18.5712 78.7134Z"   fill="#FFFFFF" >
</path>
<path d="M25.4685 65.1815C28.5443 65.0852 31.615 65.5031 34.554 66.4189C34.7575 66.4723 34.9438 66.5804 35.0891 66.7331C35.1969 66.9257 35.2293 67.151 35.1781 67.3658C34.949 69.5664 34.7284 71.7567 34.4976 73.9573C34.3916 75.4584 34.1317 76.9433 33.7214 78.3911C33.6325 78.7838 33.4222 79.1394 33.1212 79.4076C32.8682 79.5899 32.5724 79.704 32.263 79.7425C28.281 80.1323 24.2819 80.0552 20.3324 79.5114C19.6673 79.4714 19.0398 79.1853 18.5714 78.7111C18.3525 78.3273 18.2585 77.8843 18.2995 77.4441C18.2995 73.7024 16.9471 68.3795 21.36 66.3033C22.6662 65.7284 24.0511 65.3505 25.4685 65.1815Z"   fill="#00D4FC" >
</path>
<path d="M25.6948 65.1648C27.0566 64.9892 28.4308 64.9296 29.8028 64.9868C28.4299 65.0708 27.0677 65.1438 25.6948 65.1648Z"   fill="#FD95FD" >
</path>
<path d="M23.6928 80.1898C25.4765 80.0235 27.2676 79.9534 29.0588 79.9799C27.2666 80.1099 25.4749 80.1898 23.6928 80.1898Z"   fill="#00D4FC" >
</path>
<path d="M52.501 86.0495C52.4314 85.9961 52.3716 85.9327 52.3233 85.8603C52.1572 85.5417 52.0877 85.1811 52.1244 84.8231C52.1341 82.3907 52.1978 79.9494 52.165 77.5183C52.163 77.3952 52.1688 77.272 52.1862 77.1514C53.1517 76.9305 54.1153 76.7211 55.0789 76.523C56.3824 76.3174 57.6588 75.9581 58.8792 75.4541C59.6535 75.0872 60.3796 74.615 61.1424 74.2379C63.7493 73.0255 66.781 73.1347 69.2952 74.5312C70.282 74.9907 71.0293 75.8426 71.3595 76.8785C71.46 77.4015 71.4445 77.9385 71.3132 78.454C70.7049 81.1999 68.3471 83.2959 65.7479 84.375C63.0831 85.303 60.2985 85.8413 57.4792 85.9746C55.8243 86.1053 54.1617 86.1294 52.501 86.0495Z"   fill="#123BD9" >
</path>
<path d="M55.69 21.819C56.8875 19.9855 57.741 17.9596 58.22 15.819C59.0152 12.8336 59.64 9.37556 58.27 6.419C58.155 6.17902 57.98 5.869 57.98 5.869C56.9549 4.18913 55.4724 2.82293 53.7 1.959C47.856 -1.09356 40.7779 -0.547086 35.48 3.379C32.6251 5.63482 30.6247 8.79688 29.82 12.339C29.5805 13.3853 28.7156 19.5444 30.67 21.589C31.149 22.0882 31.8302 22.3462 32.52 22.279C32.3859 25.0244 33.1484 27.754 34.71 30.029C34.3843 30.7297 33.7777 31.259 33.04 31.499L31.36 31.679C30.8906 31.679 30.4194 31.7014 29.95 31.759C28.1681 32.0662 26.535 32.9331 25.28 34.229C24.1304 35.4193 23.1318 36.7275 22.26 38.129C21.2349 39.7513 20.0417 41.2563 18.71 42.629C18.5759 42.7634 18.32 42.999 18.32 42.999C17.4673 43.6422 17.0138 44.6735 17.1 45.739C17.0617 46.5741 17.1388 47.4131 17.34 48.229C17.5795 49.2081 18.1978 50.0606 19.06 50.579C19.06 50.579 20.2169 51.029 20.83 51.029C21.8263 50.9906 22.7873 50.6974 23.64 50.179C23.4867 51.4557 23.475 52.7427 23.59 54.029C23.59 54.3458 23.75 54.969 23.75 54.969C23.453 55.0554 23.1682 55.1334 22.9 55.239C19.3553 56.5925 19.5976 59.8488 19.77 61.999L19.84 63.339C19.8017 63.867 19.9647 64.3862 20.3 64.799L21.08 65.339C16.7149 67.382 16.9892 71.7794 17.2095 75.3104L17.21 75.319C17.2292 75.7222 17.2508 76.1046 17.27 76.479C14.1085 76.5846 9.50214 76.7918 7.04 76.859C5.12393 77.0318 3.18816 76.8686 1.32 76.379C0.975105 76.2638 0.608245 76.3386 0.339997 76.569C0.339997 76.569 -0.0470655 77.1734 0.0199967 77.519C0.0199967 77.519 0.344686 78.1638 0.679997 78.279C2.19369 78.7302 3.77924 78.947 5.36 78.899C7.4485 78.899 13.5583 78.6034 17.4 78.469L18.66 80.039C18.66 80.039 17.874 80.2442 17.51 80.369C11.6749 82.3147 12.0818 86.9563 12.3786 90.3435L12.38 90.359C12.4471 91.1077 12.5 92.459 12.5 92.459C12.4329 93.1789 12.6818 93.901 13.18 94.429C14.0614 95.1105 15.1487 95.4898 16.26 95.509C22.8608 96.2961 29.56 95.9546 36.18 95.609C37.0422 95.609 38.69 95.089 38.69 95.089C39.2744 94.753 39.7205 94.2329 39.96 93.609C40.5636 92.1019 40.9571 90.5217 41.12 88.909L41.4 87.009C43.5237 86.762 46.3313 86.8548 49.2805 86.9523C52.2916 87.0519 55.4503 87.1563 58.18 86.909C61.284 86.5826 64.5025 86.2461 67.3 84.739C69.6472 83.5679 71.424 81.4844 72.2 78.979C74.2693 79.075 76.3402 79.159 78.4 79.159C83.9278 79.159 89.4296 78.7885 94.9 78.059L95.73 77.459C95.8737 77.123 95.59 76.449 95.59 76.449C95.3601 76.161 94.64 76.079 94.64 76.079C87.2632 77.0485 79.8243 77.3538 72.39 76.989C71.9589 75.3379 71.0354 74.2446 69.79 73.659C69.1577 73.2942 67.77 72.809 67.77 72.809C67.77 72.809 67.7783 72.5534 67.74 72.419C67.2706 70.5951 67.0066 68.7205 66.93 66.839L66.41 59.969C66.6782 59.7194 67.04 59.079 67.04 59.079C67.337 58.2823 67.3912 57.4145 67.19 56.589C66.4906 52.2981 65.4387 48.0775 64.04 43.969C63.4652 42.0108 62.5684 40.1697 61.39 38.509C60.0775 36.6947 58.0622 35.519 55.83 35.279C55.83 35.279 55.1449 35.259 54.8 35.259L53.33 35.139C52.2187 34.7838 51.695 33.3837 51.58 32.299C51.5513 32.011 51.3999 31.7622 51.17 31.599C53.201 29.0072 54.4876 25.9227 54.89 22.659C55.1966 22.419 55.69 21.819 55.69 21.819ZM53.3551 21.0841L53.4751 21.2341C53.7111 21.084 53.9135 20.8931 54.0751 20.6641C55.1216 19.0247 55.8696 17.2052 56.2851 15.3041C56.9802 12.6872 57.5444 9.70276 56.4851 7.3341L56.4451 7.2541C56.3784 7.11364 56.3095 6.97649 56.2351 6.8341C55.3912 5.4891 54.1863 4.41295 52.7551 3.7241C47.6099 1.0341 41.3758 1.51598 36.7051 4.9641C34.212 6.9383 32.4753 9.70233 31.7751 12.8041C31.3365 14.6917 31.1738 19.2208 32.1151 20.2041C32.1151 20.2041 32.3074 20.3326 32.4151 20.2941L32.7551 20.0041C33.3579 19.2633 33.9144 17.8778 35.3251 17.5141C36.4537 17.3409 37.603 17.4573 38.6751 17.8441C39.2496 18.0173 39.8375 18.1302 40.4351 18.1841C43.6746 18.3072 46.8029 16.9728 48.9651 14.5541C49.1882 14.2943 49.534 14.1721 49.8751 14.2241L50.2751 14.3841C50.2956 14.3976 50.4251 14.5041 50.4251 14.5041L50.5951 14.7341C50.5951 14.7341 50.6323 14.7852 50.6451 14.8141L52.1151 18.2441C52.2869 18.6482 53.1592 20.6635 53.2951 20.9541C53.2951 20.9541 53.3269 21.0283 53.3551 21.0841ZM52.5782 23.0279C52.012 22.7056 51.5853 22.1862 51.3782 21.5679C51.336 21.4676 50.4309 19.3753 49.3882 16.9579C48.7358 17.5302 48.0287 18.0286 47.2682 18.4479C45.1664 19.6073 42.7987 20.2059 40.3982 20.1779C39.6432 20.1253 38.902 19.9883 38.1782 19.7679C37.4269 19.5015 36.6235 19.3853 35.8282 19.4379C35.3866 19.5514 35.0055 20.315 34.5382 20.9679C34.4008 22.8443 34.6004 24.7272 35.1282 26.5279C36.552 30.6918 41.2369 33.8741 45.1382 33.3479C48.9992 32.8348 52.1713 27.2294 52.8182 23.1379C52.7376 23.1099 52.5782 23.0279 52.5782 23.0279ZM65.2132 56.9089C64.5385 52.7359 63.5218 48.6202 62.1632 44.6189C61.6503 42.8738 60.8575 41.2284 59.8132 39.7389C58.852 38.3732 57.3575 37.4766 55.7032 37.2689C55.7032 37.2689 55.1297 37.2589 54.8432 37.2589C54.1269 37.3108 53.4163 37.2406 52.7232 37.0489C51.092 36.398 49.9289 34.92 49.6932 33.1789C48.5148 34.313 47.0259 35.0574 45.4132 35.3289C42.0445 35.7841 38.4938 34.1427 36.0632 31.6589C35.8876 31.9025 35.7004 32.1252 35.4832 32.3289C35.876 32.7003 36.2459 33.0956 36.5832 33.5189C36.9159 33.9542 36.8376 34.5835 36.4032 34.9189C35.9734 35.2583 35.3451 35.1802 35.0032 34.7489C34.615 34.2497 34.163 33.7962 33.6732 33.3889L33.6132 33.4089C33.1511 33.5407 32.6838 33.6189 32.2032 33.6389C32.3326 34.0901 32.5352 34.5215 32.8032 34.9089C33.0111 35.2004 33.0411 35.5714 32.8932 35.8989C32.8932 35.8989 32.439 36.453 32.0832 36.4889C31.732 36.5208 31.3811 36.3604 31.1732 36.0689C30.6926 35.394 30.3427 34.6334 30.1532 33.7589C29.5756 33.8547 29.0207 34.0394 28.5032 34.3189C28.8359 34.9299 29.2764 35.4797 29.8032 35.9389C30.2052 36.3063 30.2436 36.9276 29.8832 37.3389C29.5274 37.7502 28.8991 37.7963 28.4832 37.4489C27.8409 36.8858 27.2976 36.2237 26.8632 35.4889C26.8632 35.4889 26.7333 35.613 26.6732 35.6689C26.4006 35.9365 26.1427 36.2194 25.8932 36.5189C26.9699 37.1019 27.9805 37.7802 28.9232 38.5589C29.2097 38.7865 29.3486 39.1495 29.2932 39.5089C29.2331 39.8683 28.9851 40.1751 28.6432 40.2989C28.2966 40.4227 27.9158 40.3425 27.6432 40.0989C26.7837 39.3841 25.8584 38.7558 24.7032 38.0889C24.2134 38.7997 23.8259 39.3857 23.4932 39.8889C22.5089 41.3824 21.3801 42.765 20.1232 44.0389C20.1232 44.0389 19.8111 44.3531 19.6632 44.4889C19.6632 44.4889 19.338 44.7852 19.2132 44.9689C19.13 45.2245 19.1032 45.7689 19.1032 45.7689C19.0616 46.4118 19.1199 47.0519 19.2632 47.6789C19.3371 48.1701 19.6334 48.5953 20.0632 48.8389C20.4929 49.0825 21.0057 49.1226 21.4632 48.9389C22.9927 48.4238 24.2968 47.3766 25.1332 45.9989C25.4289 45.2402 25.7828 44.6179 26.0832 44.0189C25.769 43.947 25.452 43.8908 25.1332 43.8589L25.1732 42.8689L25.3432 41.8789C26.346 41.8549 27.3147 42.2581 28.0032 42.9889C28.1418 43.1966 28.2424 43.4313 28.2932 43.6789L31.9832 42.8489C32.2789 42.781 32.5929 42.8512 32.8332 43.0389L33.2032 43.8189C33.2032 44.977 33.0727 46.1348 32.8232 47.2689C33.3315 47.3408 33.7943 47.6036 34.1132 47.9989C34.2888 48.2824 34.3594 48.6175 34.3132 48.9489L34.0132 52.2689C33.9624 53.0716 33.8373 53.8662 33.6432 54.6489C34.4519 54.7687 35.253 54.9373 36.0432 55.1489C36.0432 55.1489 36.6983 55.4073 36.9432 55.6589C37.2251 55.9864 37.3418 56.4216 37.2632 56.8489L36.7132 61.0889C36.6208 62.1431 36.4044 63.1806 36.0532 64.1789C35.9746 64.3826 35.8733 64.5792 35.7532 64.7589C36.3863 64.9106 36.9841 65.0912 37.5432 65.2789C37.9452 65.3907 38.2998 65.6254 38.5632 65.9489C38.822 66.3363 38.9218 66.8097 38.8432 67.2689L38.5032 70.5489C38.5032 70.5489 38.7892 70.573 38.9232 70.6289C42.5368 72.2063 46.9489 71.4939 50.4932 70.9189L57.1332 69.8489C56.0057 69.1341 55.0318 68.189 54.2832 67.0789C53.9828 66.6197 54.1057 66.0064 54.5632 65.6989C55.0207 65.3954 55.6382 65.5137 55.9432 65.9689C56.4284 66.6917 57.0354 67.3238 57.7332 67.8389L57.5032 65.6989C57.5032 65.6989 57.228 65.6568 57.1032 65.5889C55.9433 64.938 54.8782 64.1153 53.9632 63.1489C53.7044 62.8933 53.6162 62.5163 53.7132 62.1689C53.7132 62.1689 54.0974 61.5528 54.4532 61.4689C54.8044 61.389 55.1683 61.5014 55.4132 61.7689C55.9677 62.3399 56.5924 62.8456 57.2532 63.2889L56.8932 60.6789C56.8932 60.6789 56.7633 60.6709 56.7032 60.6589C55.3631 60.3913 54.2361 59.4708 53.7232 58.2089C53.5153 57.6938 53.7703 57.1126 54.2832 56.9089C54.7961 56.7012 55.3753 56.9478 55.5832 57.4589C55.8466 58.0938 56.4139 58.5591 57.0932 58.6989C56.742 55.9835 56.5647 53.2483 56.5832 50.5089C56.5832 50.5089 56.6884 49.9906 56.8732 49.7989L57.5832 49.4989C58.1331 49.4989 58.5932 49.9318 58.5932 50.4789C58.5377 53.5298 58.7588 56.5879 59.2532 59.5989L62.8832 59.2089C63.8166 59.1091 64.9313 58.9178 65.2132 58.2789C65.3287 57.8316 65.3287 57.3561 65.2132 56.9089ZM31.1488 45.0879L28.4488 45.6879C28.2001 45.743 27.9531 45.7679 27.6988 45.7679C27.6847 45.7898 27.6616 45.827 27.6488 45.8479C27.4112 46.2133 27.1714 46.5699 26.9188 46.9279C26.9068 46.9658 26.8899 47.0109 26.8788 47.0479C28.1901 46.7458 29.5449 46.6796 30.8788 46.8579C31.0083 46.2737 31.0958 45.6838 31.1488 45.0879ZM27.7578 48.8905C28.337 49.0467 28.9569 48.9977 29.5078 48.7605C28.9236 48.7439 28.3342 48.7834 27.7578 48.8805L27.7578 48.8905ZM25.5868 54.0709L25.6968 54.0809C27.6786 54.3589 29.6896 54.3683 31.7268 54.1109C31.8881 53.4432 31.9856 52.7666 32.0268 52.0809L32.2968 49.1809C32.2617 49.1809 32.2205 49.1509 32.1868 49.1509L32.1468 49.2109C31.2477 50.3337 29.8852 50.9809 28.4468 50.9809C28.1228 50.9809 27.802 50.9345 27.4868 50.8609C27.2323 51.021 26.9203 51.0613 26.6368 50.9609C26.3533 50.8605 26.124 50.6356 26.0268 50.3509C25.906 50.3401 25.7936 50.3223 25.6768 50.2909C25.6133 50.5051 25.567 50.7185 25.5468 50.9409L26.5168 51.3609C27.0237 51.5818 27.2475 52.1738 27.0268 52.6809C26.8054 53.188 26.2237 53.4218 25.7168 53.2009L25.5568 53.1309C25.5669 53.3142 25.5868 53.8871 25.5868 54.0709ZM23.6129 57.1065C23.4573 57.1707 23.3109 57.2371 23.1729 57.3265C23.6139 57.9899 23.8184 58.7817 23.7629 59.5765C23.7223 60.1275 23.2435 60.5462 22.6929 60.5065C22.1423 60.4668 21.7337 59.9875 21.7729 59.4365L21.7629 59.3665C21.6966 59.8755 21.6798 60.3945 21.7529 60.9065L23.6929 61.2365C24.2029 61.3259 24.5562 61.7899 24.5129 62.3065C24.4683 62.8231 24.0411 63.2265 23.5229 63.2265C23.4647 63.2265 23.3997 63.2065 23.3429 63.2065L21.8229 62.9465C21.8229 63.0711 21.8429 63.2058 21.8429 63.3265L21.8429 63.4965C22.0797 63.5859 22.3299 63.6459 22.5829 63.6665C26.187 64.0379 29.8147 64.0551 33.4229 63.7165C33.6556 63.7165 33.8897 63.6807 34.1129 63.6165C34.1413 63.5615 34.1626 63.5046 34.1829 63.4465C34.4724 62.6005 34.6571 61.7276 34.7329 60.8365L35.2229 57.0065C33.153 56.5189 31.0283 56.2829 28.9029 56.3165C29.3196 56.6245 29.4335 57.2048 29.1629 57.6465C28.8937 58.089 28.3269 58.2473 27.8629 58.0165C27.2839 57.6711 26.875 57.1053 26.7329 56.4465C26.4758 56.474 26.2205 56.4998 25.9729 56.5365L26.3829 58.0565C26.5074 58.5861 26.1792 59.1205 25.6529 59.2565C25.1266 59.3925 24.5904 59.08 24.4429 58.5565L24.0329 56.9765C23.8976 57.0246 23.7387 57.0637 23.6129 57.1065ZM61.4169 72.7929C61.4598 72.8628 61.4925 72.9446 61.5169 73.0229C62.8504 72.5326 64.2814 72.3333 65.6969 72.4429C65.2861 70.6515 65.028 68.8277 64.9369 66.9929L64.4869 60.9729C64.0312 61.0825 63.5632 61.1595 63.0969 61.2029C59.439 61.5884 59.4059 61.6009 59.0869 61.6129L59.7469 67.8429C59.8083 68.4224 59.8692 68.9604 59.9769 69.4929C60.2173 70.6831 60.7042 71.8087 61.4169 72.7929ZM30.0879 66.0049C30.3431 66.545 30.3775 67.1676 30.1879 67.7349C30.0018 68.2555 29.4288 68.5305 28.9079 68.3449C28.3887 68.1592 28.1236 67.5855 28.3079 67.0649C28.3398 66.9325 28.286 66.7893 28.1779 66.7049C27.9351 66.5478 27.7751 66.2918 27.7379 66.0049C26.9919 66.0361 26.2678 66.0949 25.5679 66.1949C25.9985 66.7259 26.3871 67.2881 26.7379 67.8749C26.9293 68.1839 26.9351 68.5781 26.7579 68.8949C26.5807 69.213 26.2411 69.4049 25.8779 69.4049C25.5147 69.4049 25.1833 69.203 25.0079 68.8849C24.6004 68.1864 24.1248 67.5299 23.5879 66.9249C23.5135 66.8353 23.4569 66.7339 23.4179 66.6249C22.8597 66.7755 22.3142 66.9747 21.7879 67.2149C21.4955 67.3538 21.2166 67.5289 20.9579 67.7249C21.3832 68.1858 21.871 68.5842 22.4079 68.9049C22.8845 69.184 23.0479 69.7971 22.7679 70.2749C22.4897 70.7514 21.8745 70.904 21.3979 70.6249C20.7777 70.251 20.2129 69.8029 19.7079 69.2849C19.3695 70.0625 19.176 70.8981 19.2079 71.7549C19.9822 72.0249 20.7274 72.366 21.4379 72.7749C21.748 72.9541 21.9379 73.2779 21.9379 73.6349C21.9379 73.9932 21.748 74.3257 21.4379 74.5049C21.1278 74.6841 20.748 74.6841 20.4379 74.5049C20.0162 74.266 19.578 74.0567 19.1279 73.8749C19.1633 74.7486 19.2289 75.4757 19.2679 76.2949C19.7534 76.2118 20.2191 76.0477 20.6479 75.8049C20.8765 75.6725 21.1527 75.6361 21.4079 75.7049C21.6648 75.7737 21.875 75.9351 22.0079 76.1649C22.1426 76.3921 22.187 76.6665 22.1179 76.9249C22.0488 77.1819 21.88 77.4038 21.6479 77.5349C21.0082 77.8997 20.3126 78.1577 19.5879 78.2849C19.8785 78.4095 20.1843 78.4934 20.4979 78.5349C24.9866 79.2928 29.667 78.9451 34.1957 78.6088L34.2479 78.6049C34.5704 78.6049 34.8938 78.5421 35.1879 78.4149C35.3137 78.2617 35.3936 78.0883 35.4379 77.8949C35.8224 76.511 36.0669 75.0869 36.1679 73.6549L36.8479 67.1549C34.6578 66.4681 32.3825 66.0802 30.0879 66.0049ZM38.1668 73.8559C38.0545 75.4251 37.7854 76.9824 37.3568 78.4959C37.2422 78.8867 37.0575 79.2582 36.8168 79.5859C37.5961 79.699 38.3463 79.8245 39.0568 79.9659C39.1622 79.6782 39.3934 79.4565 39.6868 79.3659C43.7643 78.1592 47.8962 77.0857 51.9668 76.1859L51.9668 76.1759C53.5368 75.8166 54.5013 75.6248 55.0468 75.5159C56.2226 75.3296 57.3689 75.0099 58.4668 74.5559C58.8541 74.3746 59.2286 74.1588 59.6068 73.9459C59.6503 73.9201 59.7368 73.8759 59.7368 73.8759C59.2509 73.184 58.8539 72.4342 58.5468 71.6459L50.8168 72.8959C48.6211 73.3067 46.4015 73.541 44.1668 73.5959C42.1636 73.6333 40.1702 73.2752 38.3068 72.5359L38.1668 73.8559ZM55.4327 77.4669C56.7638 77.2513 58.0707 76.8816 59.3127 76.3569C59.7478 76.1508 60.1647 75.9148 60.5827 75.6769C60.9801 75.4146 61.4073 75.1947 61.8527 75.0269C62.4609 74.7688 63.1 74.5936 63.7527 74.4969C63.691 74.6297 63.6401 74.7735 63.6127 74.9169C63.5116 75.4246 63.6535 75.946 63.9927 76.3369C65.0103 76.2753 65.8368 75.4812 65.9327 74.4669C66.5186 74.5402 67.0876 74.6751 67.6427 74.8769C67.3223 75.2571 67.0849 75.7 66.9427 76.1769C66.7919 76.708 67.1016 77.265 67.6327 77.4169C68.1638 77.5688 68.7202 77.258 68.8727 76.7269C68.9772 76.3764 69.1963 76.0715 69.4927 75.8569C69.8148 76.1001 70.0728 76.4158 70.2527 76.7769C69.7131 77.3696 69.1074 77.8987 68.4427 78.3469C68.1343 78.5402 67.9538 78.8826 67.9727 79.2469C67.9933 79.6102 68.2055 79.9376 68.5327 80.0969C68.8616 80.2552 69.2546 80.2172 69.5527 80.0069C69.5527 80.0069 69.6067 79.9603 69.6427 79.9369C68.8324 81.2412 67.6898 82.2991 66.3227 82.9969C63.6862 84.4095 60.345 84.6753 57.3727 84.9769C55.9594 85.0863 54.5494 85.1121 53.1327 85.0569C53.1206 84.7078 53.1316 83.8495 53.1456 82.7522L53.1456 82.7514L53.1456 82.7513C53.1634 81.3546 53.1861 79.5709 53.1727 77.9569C55.1616 77.514 55.2203 77.5136 55.4327 77.4669ZM51.1268 84.8219L51.1268 85.0019C47.9881 84.8292 44.8365 84.8216 41.6968 84.9719L42.0868 82.3219C42.1986 81.8006 42.0568 81.2554 41.6968 80.8619C44.8488 79.957 48.0176 79.1336 51.1668 78.4119C51.1745 80.019 51.1609 81.2514 51.1471 82.4994L51.1471 82.5L51.1471 82.5008C51.1389 83.2418 51.1307 83.9882 51.1268 84.8219ZM25.4829 84.1472C25.2089 83.9054 25.0828 83.5347 25.1629 83.1772L25.5729 81.0672C24.7045 81.114 23.8522 81.1749 23.0329 81.2672C23.2758 81.5181 23.3634 81.8818 23.2729 82.2172C23.0997 82.827 23.0479 83.4579 23.1229 84.0872C23.1875 84.6332 22.7982 85.1309 22.2529 85.1972C21.7076 85.2648 21.2153 84.8819 21.1429 84.3372C21.0343 83.4414 21.1074 82.5344 21.3529 81.6672C21.3762 81.6074 21.4429 81.4972 21.4429 81.4972C20.391 81.6597 19.3486 81.8926 18.3329 82.2072L19.0229 85.0472C19.1134 85.3969 19.0113 85.7663 18.7529 86.0172C18.4919 86.2694 18.1192 86.3599 17.7729 86.2572C17.4266 86.1545 17.163 85.8795 17.0829 85.5272L16.4729 83.0472C15.7337 83.4944 15.1402 84.1423 14.7629 84.9172C14.8146 85.0017 14.8829 85.1872 14.8829 85.1872C15.0483 85.94 15.3918 86.6517 15.8829 87.2472C16.1103 87.5215 16.1795 87.8931 16.0529 88.2272C15.9288 88.5626 15.637 88.8087 15.2829 88.8672C14.9314 88.927 14.5703 88.7928 14.3429 88.5172L14.2429 88.3772C14.2972 89.7423 14.5029 91.1835 14.5029 92.4472C14.5029 92.8138 14.5929 93.0072 14.5929 93.0072C15.1718 93.3374 15.8261 93.5272 16.4929 93.5272C22.9412 94.2982 29.6194 93.9491 36.0729 93.6072C36.6363 93.6072 37.1931 93.5183 37.7229 93.3272C37.9193 93.2011 38.0631 93.0121 38.1329 92.7872C38.6627 91.4507 39.0007 90.0486 39.1429 88.6172L40.0829 82.2272C40.0519 82.2272 39.9829 82.2072 39.9829 82.2072C38.1221 81.7769 36.2325 81.4666 34.3329 81.2872C34.3329 81.3405 34.3229 81.3939 34.3229 81.4472L33.8929 83.1672C33.8128 83.5208 33.5418 83.8045 33.1929 83.9072C32.8466 84.0086 32.4713 83.9107 32.2129 83.6572C31.9544 83.4024 31.8547 83.0269 31.9529 82.6772L32.3429 81.1272C31.7846 81.0908 31.2289 81.058 30.6629 81.0372L30.6629 81.0672C30.6784 81.8109 30.5658 82.5538 30.3229 83.2572C30.2092 83.5952 29.9218 83.8483 29.5729 83.9172C29.2214 83.9861 28.8555 83.8563 28.6229 83.5872C28.3877 83.3181 28.3166 82.9452 28.4329 82.6072C28.6009 82.1249 28.6758 81.6168 28.6629 81.1072L28.6829 80.9872C28.3081 80.9872 27.9376 80.9972 27.5629 80.9972C27.5758 81.0856 27.5758 81.1701 27.5629 81.2572L27.1329 83.5472C27.0786 83.9086 26.8266 84.2111 26.4829 84.3372C26.1392 84.462 25.7569 84.389 25.4829 84.1472Z" fill-rule="evenodd"  fill="#000000" >
</path>
</svg>
