<?xml version="1.0" standalone="no"?><!DOCTYPE svg PUBLIC "-//W3C//DTD SVG 1.1//EN" "http://www.w3.org/Graphics/SVG/1.1/DTD/svg11.dtd"><svg t="1748259192873" class="icon" viewBox="0 0 1024 1024" version="1.1" xmlns="http://www.w3.org/2000/svg" p-id="65377" xmlns:xlink="http://www.w3.org/1999/xlink" width="200" height="200"><path d="M112.065989 303.949848h799.868022v479.920813H112.065989z" fill="#C5E4FA" p-id="65378"></path><path d="M671.973604 767.873301l239.960407-239.960407V319.947209h-31.994721L432.013198 767.873301h239.960406zM272.039593 767.873301h95.984163l447.926092-447.926092h-95.984162L272.039593 767.873301zM144.06071 767.873301l447.926092-447.926092h-15.99736L128.06335 767.873301h15.99736z" fill="#E3F2FF" p-id="65379"></path><path d="M352.026396 543.910255m-143.976244 0a143.976244 143.976244 0 1 0 287.952488 0 143.976244 143.976244 0 1 0-287.952488 0Z" fill="#72CAAF" p-id="65380"></path><path d="M464.007919 639.894417l31.994721-95.984162h-127.978884l95.984163 95.984162z" fill="#FFEB9B" p-id="65381"></path><path d="M464.007919 447.926092l31.994721 95.984163h-143.976244v-143.976244l111.981523 47.992081z" fill="#ED7899" p-id="65382"></path><path d="M48.076547 783.870661m15.997361 0l879.854824 0q15.99736 0 15.99736 15.997361l0 31.994721q0 15.99736-15.99736 15.99736l-879.854824 0q-15.99736 0-15.997361-15.99736l0-31.994721q0-15.99736 15.997361-15.997361Z" fill="#FFEFB8" p-id="65383"></path><path d="M48.076547 143.976244m31.994721 0l863.857464 0q31.994721 0 31.994721 31.994721l0 95.984162q0 31.994721-31.994721 31.994721l-863.857464 0q-31.994721 0-31.994721-31.994721l0-95.984162q0-31.994721 31.994721-31.994721Z" fill="#ACB7D0" p-id="65384"></path><path d="M943.928732 319.947209a47.992081 47.992081 0 0 0 47.992081-47.992082v-95.984162a47.992081 47.992081 0 0 0-47.992081-47.992082H599.345588l-51.671474-61.109916a47.992081 47.992081 0 0 0-36.633956-16.957202 47.992081 47.992081 0 0 0-36.793929 17.597096L424.494438 127.978883H80.071268a47.992081 47.992081 0 0 0-47.992081 47.992082v95.984162a47.992081 47.992081 0 0 0 47.992081 47.992082h15.997361v447.926092H80.071268a47.992081 47.992081 0 0 0 0 95.984163h415.931372v63.989441a15.99736 15.99736 0 0 0 0 2.719552 47.992081 47.992081 0 1 0 30.874905 0A15.99736 15.99736 0 0 0 527.99736 927.846905v-63.989441h415.931372a47.992081 47.992081 0 0 0 0-95.984163h-15.997361V319.947209zM512 997.27545A21.436463 21.436463 0 1 1 533.436463 975.838987 21.596437 21.596437 0 0 1 512 997.27545z m-13.277809-909.449941a15.99736 15.99736 0 0 1 12.317967-5.919024 17.597096 17.597096 0 0 1 12.317968 5.599077L557.432504 127.978883h-91.664876zM80.071268 287.952488a15.99736 15.99736 0 0 1-15.99736-15.997361v-95.984162a15.99736 15.99736 0 0 1 15.99736-15.997361h863.857464a15.99736 15.99736 0 0 1 15.99736 15.997361v95.984162a15.99736 15.99736 0 0 1-15.99736 15.997361H80.071268z m863.857464 511.915534a15.99736 15.99736 0 0 1 0 31.994721H80.071268a15.99736 15.99736 0 0 1 0-31.994721h863.857464z m-47.992082-31.994721H128.06335V319.947209h767.8733z" fill="#8D6C9F" p-id="65385"></path><path d="M352.026396 703.883859a159.973604 159.973604 0 1 0-159.973605-159.973604 159.973604 159.973604 0 0 0 159.973605 159.973604z m103.662895-79.986802l-63.989441-63.989442h89.905165a130.218514 130.218514 0 0 1-25.915724 63.989442z m26.235671-95.984163H368.023756v-111.981523a15.037519 15.037519 0 0 0 0-1.919683A131.178356 131.178356 0 0 1 481.924962 527.912894zM336.029035 414.011688a15.037519 15.037519 0 0 0 0 1.919683v125.259333a15.99736 15.99736 0 0 0 2.719551 8.318627 15.99736 15.99736 0 0 0 3.679393 5.919023l90.865008 90.865008A130.858408 130.858408 0 1 1 336.029035 414.011688zM751.960407 511.915534h79.986802a15.99736 15.99736 0 0 0 0-31.994721h-79.986802a15.99736 15.99736 0 0 0 0 31.994721zM575.989442 511.915534h111.981523a15.99736 15.99736 0 0 0 0-31.994721h-111.981523a15.99736 15.99736 0 0 0 0 31.994721zM575.989442 575.904976h63.989441a15.99736 15.99736 0 0 0 0-31.994721h-63.989441a15.99736 15.99736 0 0 0 0 31.994721zM575.989442 639.894417h191.968325a15.99736 15.99736 0 0 0 0-31.99472H575.989442a15.99736 15.99736 0 0 0 0 31.99472zM112.065989 191.968325a15.99736 15.99736 0 0 0-15.99736 15.997361v31.994721a15.99736 15.99736 0 0 0 31.994721 0v-31.994721a15.99736 15.99736 0 0 0-15.997361-15.997361zM192.052791 191.968325a15.99736 15.99736 0 0 0-15.99736 15.997361v31.994721a15.99736 15.99736 0 0 0 31.994721 0v-31.994721a15.99736 15.99736 0 0 0-15.997361-15.997361zM272.039593 191.968325a15.99736 15.99736 0 0 0-15.99736 15.997361v31.994721a15.99736 15.99736 0 0 0 31.994721 0v-31.994721a15.99736 15.99736 0 0 0-15.997361-15.997361zM352.026396 191.968325a15.99736 15.99736 0 0 0-15.997361 15.997361v31.994721a15.99736 15.99736 0 0 0 31.994721 0v-31.994721a15.99736 15.99736 0 0 0-15.99736-15.997361zM432.013198 191.968325a15.99736 15.99736 0 0 0-15.997361 15.997361v31.994721a15.99736 15.99736 0 0 0 31.994721 0v-31.994721a15.99736 15.99736 0 0 0-15.99736-15.997361zM512 191.968325a15.99736 15.99736 0 0 0-15.99736 15.997361v31.994721a15.99736 15.99736 0 0 0 31.99472 0v-31.994721a15.99736 15.99736 0 0 0-15.99736-15.997361zM591.986802 191.968325a15.99736 15.99736 0 0 0-15.99736 15.997361v31.994721a15.99736 15.99736 0 0 0 31.994721 0v-31.994721a15.99736 15.99736 0 0 0-15.997361-15.997361zM671.973604 191.968325a15.99736 15.99736 0 0 0-15.99736 15.997361v31.994721a15.99736 15.99736 0 0 0 31.994721 0v-31.994721a15.99736 15.99736 0 0 0-15.997361-15.997361zM751.960407 191.968325a15.99736 15.99736 0 0 0-15.997361 15.997361v31.994721a15.99736 15.99736 0 0 0 31.994721 0v-31.994721a15.99736 15.99736 0 0 0-15.99736-15.997361zM831.947209 191.968325a15.99736 15.99736 0 0 0-15.997361 15.997361v31.994721a15.99736 15.99736 0 0 0 31.994721 0v-31.994721a15.99736 15.99736 0 0 0-15.99736-15.997361zM927.931371 207.965686a15.99736 15.99736 0 0 0-31.994721 0v31.994721a15.99736 15.99736 0 0 0 31.994721 0z" fill="#8D6C9F" p-id="65386"></path></svg>