<?xml version="1.0" standalone="no"?><!DOCTYPE svg PUBLIC "-//W3C//DTD SVG 1.1//EN" "http://www.w3.org/Graphics/SVG/1.1/DTD/svg11.dtd"><svg t="1748262240107" class="icon" viewBox="0 0 1024 1024" version="1.1" xmlns="http://www.w3.org/2000/svg" p-id="86478" xmlns:xlink="http://www.w3.org/1999/xlink" width="200" height="200"><path d="M102 72m117.196 0l585.98 0q117.196 0 117.196 117.196l0 644.578q0 117.196-117.196 117.196l-585.98 0q-117.196 0-117.196-117.196l0-644.578q0-117.196 117.196-117.196Z" fill="#000000" p-id="86479"></path><path d="M595.338 804.437c2.689 0.228 5.378-0.456 8.066-2.05 2.689-1.596 5.154-4.217 7.394-7.863 2.24-3.646 3.361-8.66 3.361-15.04 0.448-25.067 0.448-43.184 0-54.35-0.448-11.166-1.568-19.484-3.36-24.953-2.241-8.66-4.034-19.142-5.378-31.447-1.345-12.306-2.353-25.523-3.025-39.652-0.672-14.128-0.896-28.827-0.672-44.095 0.224-15.268 0.784-30.65 1.68-46.146 1.345-27.346 4.033-45.576 8.066-54.691 4.034-9.116 8.739-12.306 14.116-9.571 6.274 2.734 11.54 5.81 15.796 9.229 4.257 3.418 7.058 8.09 8.403 14.015 1.344 5.925 0.784 13.559-1.68 22.902-2.466 9.343-7.283 20.85-14.453 34.524-4.033 7.748-7.282 14.698-9.746 20.85-2.465 6.154-3.25 13.56-2.353 22.22 0.896 8.203 2.465 15.495 4.705 21.876 2.24 6.38 6.61 11.964 13.108 16.75 6.497 4.785 15.908 9 28.231 12.647 12.323 3.646 29.016 7.064 50.077 10.254 10.307 1.368 17.477 0 21.51-4.102 4.033-4.101 6.498-11.394 7.394-21.876-1.344-6.837-4.033-13.445-8.066-19.826-4.033-6.38-9.299-11.964-15.796-16.75-6.498-4.785-13.78-8.317-21.846-10.596-8.066-2.278-16.58-3.19-25.543-2.734-2.688 0-5.265-1.254-7.73-3.76-2.464-2.507-3.249-6.495-2.352-11.964 0.896-5.47 4.033-12.534 9.41-21.193 5.377-8.66 14.34-19.37 26.887-32.131 7.17-7.292 11.203-15.496 12.1-24.611 0.896-9.116-0.56-17.661-4.37-25.637-3.809-7.976-9.634-14.698-17.476-20.168-7.842-5.469-16.917-8.203-27.224-8.203-8.962 0-16.692 1.139-23.19 3.418-6.497 2.279-14.676 7.064-24.534 14.356-2.24-5.469-3.81-13.445-4.705-23.927-0.897-10.483-0.897-20.054 0-28.713 0.448-5.47 3.248-11.85 8.402-19.142 5.153-7.292 11.763-14.47 19.829-21.535 8.066-7.064 17.253-13.331 27.56-18.8 10.306-5.47 20.837-9.343 31.592-11.622 6.721-0.912 12.435-4.558 17.14-10.939 4.705-6.38 5.49-13.217 2.353-20.509-4.93-11.85-9.97-19.484-15.124-22.902-5.154-3.418-12.884-5.127-23.19-5.127-4.93 0-9.971 0.57-15.124 1.709-5.154 1.14-10.98 3.076-17.477 5.81-6.498 2.735-14.116 6.723-22.854 11.965-8.738 5.24-19.381 11.963-31.928 20.167-5.378 3.646-9.187 3.988-11.427 1.026-2.24-2.963-2.913-5.811-2.017-8.546 6.274-19.598 7.954-34.638 5.041-45.12-2.912-10.483-8.402-17.547-16.468-21.193-17.476-8.66-30.696-14.243-39.658-16.75-8.963-2.506-17.477-1.709-25.543 2.393-5.826 3.19-9.186 6.153-10.083 8.887-0.896 2.735 0.224 4.558 3.361 5.47 7.618 0.911 13.22 4.671 16.805 11.28 3.585 6.608 4.929 15.154 4.033 25.636 0 2.735-1.233 7.634-3.697 14.699-2.465 7.064-5.714 15.04-9.747 23.927-4.033 8.888-8.738 18.117-14.116 27.688-5.377 9.57-10.978 18.458-16.804 26.662-3.585 5.47-4.705 13.103-3.36 22.902 1.343 9.799 6.273 24.27 14.787 43.411 3.585 7.748 7.282 11.508 11.091 11.28 3.809-0.227 10.195-3.987 19.157-11.28 4.033-3.19 8.626-6.836 13.78-10.938a896.105 896.105 0 0 0 15.124-12.306 427.54 427.54 0 0 1 14.115-11.28c4.481-3.418 8.066-6.038 10.755-7.862 0 15.496-0.224 31.22-0.672 47.172-0.448 15.952-1.344 34.41-2.689 55.375-2.24 36.917-4.145 68.137-5.713 93.66-1.569 25.522-2.801 46.943-3.697 64.262-0.896 17.319-1.457 31.22-1.68 41.702-0.225 10.483-0.113 19.142 0.335 25.979 0.449 6.836 1.345 12.533 2.69 17.09a531.105 531.105 0 0 0 4.704 15.041c4.033 13.217 8.739 23.928 14.116 32.131 5.377 8.204 10.083 14.585 14.116 19.142 0.896 1.368 2.688 2.165 5.377 2.393z m-228.54-72.124c5.378 5.469 10.419 4.33 15.124-3.419 4.705-7.748 7.954-24.383 9.747-49.906 1.344-28.257 2.576-52.526 3.697-72.808 1.12-20.281 2.352-37.942 3.697-52.982 1.344-15.04 2.912-27.802 4.705-38.284 1.792-10.483 4.257-20.054 7.394-28.713 0.896-3.19 1.904-8.204 3.025-15.04 1.12-6.837 2.128-14.357 3.024-22.56a985.817 985.817 0 0 0 2.353-24.27c0.672-7.976 1.232-14.926 1.68-20.851 0.449-4.558-0.448-6.837-2.688-6.837s-3.81 1.823-4.706 5.47c-6.721 19.597-12.323 36.46-16.804 50.59-4.481 14.128-9.41 29.168-14.788 45.12-4.93-7.748-9.186-14.47-12.771-20.168-3.585-5.697-6.946-11.736-10.083-18.116a32.033 32.033 0 0 1-1.008-3.76c-0.224-1.14 0-2.507 0.672-4.102 0.672-1.596 1.793-3.874 3.361-6.837 1.568-2.962 3.921-6.95 7.058-11.964a17402.446 17402.446 0 0 1 24.534-38.967c6.05-9.571 10.867-16.977 14.452-22.219 3.585-5.241 6.386-9.115 8.402-11.622 2.017-2.506 4.145-4.671 6.386-6.494 7.618-6.837 12.883-12.078 15.796-15.724 2.913-3.646 4.37-8.66 4.37-15.04 0-16.864-4.37-31.676-13.108-44.437-8.738-12.762-21.622-19.598-38.65-20.51-5.826-0.455-11.203-1.937-16.133-4.443-4.929-2.507-8.066-4.444-9.41-5.811-4.033-4.102-7.058-5.241-9.074-3.418-2.017 1.823-1.68 6.38 1.008 13.672 0.896 4.102 0.672 9.344-0.672 15.724-1.345 6.381-4.706 15.382-10.083 27.004-5.377 11.622-13.332 26.662-23.862 45.12-10.531 18.46-24.535 41.59-42.011 69.39a55.877 55.877 0 0 1-11.091 11.964c-4.257 3.419-9.075 5.811-14.452 7.179-2.24 0.455-4.033 2.392-5.377 5.81-1.345 3.419-2.017 7.52-2.017 12.306s0.672 10.141 2.017 16.066c1.344 5.925 3.136 11.85 5.377 17.775 5.377 12.761 9.746 22.56 13.107 29.396 3.361 6.837 6.386 11.28 9.075 13.331 2.688 2.051 5.153 2.28 7.394 0.684 2.24-1.595 4.705-4.444 7.394-8.545 8.962-13.218 16.356-20.51 22.181-21.877 5.826-1.367 9.635 1.367 11.427 8.204 1.345 5.013 2.241 12.305 2.69 21.876 0.447 9.571 0.56 20.054 0.335 31.448a625.423 625.423 0 0 1-1.68 34.866c-0.896 11.85-2.24 22.104-4.033 30.764-3.137 19.142-1.569 37.03 4.705 53.666 6.274 16.635 19.045 34.068 38.314 52.299z" fill="#FFFFFF" p-id="86480"></path></svg>